<?xml version="1.0" encoding="utf-8"?>
<!-- Generator: Adobe Illustrator 28.0.0, SVG Export Plug-In . SVG Version: 6.00 Build 0)  -->
<svg version="1.1" id="Layer_1" xmlns="http://www.w3.org/2000/svg" xmlns:xlink="http://www.w3.org/1999/xlink" x="0px" y="0px"
	 viewBox="0 0 803.7 738.3" style="enable-background:new 0 0 803.7 738.3;" xml:space="preserve">
<style type="text/css">
	.st0{stroke:#1D1D1B;stroke-miterlimit:10;}
	.st1{fill:#FFFFFF;}
	.st2{fill:none;}
	.st3{fill:none;stroke:#FFFFFF;stroke-width:3;stroke-miterlimit:10;}
	.st4{fill:none;stroke:#FFFFFF;stroke-width:0.75;stroke-miterlimit:10;}
	.st5{fill:none;stroke:#FFFFFF;stroke-width:5;stroke-miterlimit:10;}
	.st6{stroke:#000000;stroke-width:2;stroke-miterlimit:10;}
</style>
<rect x="-121.1" y="-170.3" class="st0" width="1111.4" height="1092.9"/>
<g>
	<g id="Layer_1_00000183966919051627619610000001017535678813540995_">
		<g>
			<path class="st1" d="M505.6,57.2c4.4,1,8.8,1.7,12.9,3.1c27.6,8.2,53.4,19.7,77.9,34.7c1.4,1,2.7,2.4,4.8,4.4
				c4.8,1,9.9,3.4,12.2,8.2c2,0.7,3.7,1,5.1,2c24.5,17.7,45.9,38.1,64.6,61.9c1.4,1.7,1.7,3.7,2.7,6.1c3.1-1,4.4,6.5,9.2,2
				c-3.1-4.1-6.5-8.8-9.9-12.9c-7.8-9.5-16.3-18.7-25.2-27.6c-0.7-0.7-1-1-1.7-1.7c-1.7-2.4-0.7-7.5-6.1-5.8c-0.3,0-1-1-1.7-1.7
				c-6.1-5.1-11.9-10.5-18-15.3c-3.1-2.4-4.4-4.4-3.7-8.2c0.3-2,0.3-4.4-3.1-5.1c0.3,2.7,0.7,5.4,1,8.8c-4.8-3.4-9.2-6.5-14.3-10.2
				c3.7-1.4,6.1-2.4,8.5-3.4c-0.3-0.7-0.3-1.4-0.7-2c-3.4,1-6.8,1.7-11.6,3.1C570.2,72.2,526.3,54.8,479,47
				c4.1-3.7,7.8-7.8,11.6-11.6c-0.3-0.3-0.7-1-1-1.4c-1,0.7-2,1.7-3.1,2.4c-2.7,1.7-5.4,3.7-8.2,5.4H478c-3.1,6.5-8.5,3.4-12.9,2.7
				c-30.3-3.7-60.2-3.1-90.1,1.4c-1.7,0.3-3.7-1-6.1-2c0,0.3-0.3,1.7-0.3,2.7c-8.2,2-16.3,3.7-24.5,5.8c-1.4,0.3-2.7-0.7-4.1-1
				c-1.7,5.8-8.2,3.1-11.9,5.8c-0.3-5.1-1-9.5-1.4-14.6c-2.4,0.3-4.4,0.7-5.8,1c1.4,4.8,2.7,9.5,4.1,14.6c-2.4,0.3-4.1,0.7-6.5,1
				c-0.7,0.3-1.4,1.4-2.7,2c-5.8,2.4-11.6,4.4-17.7,6.5c-2-3.1-4.1-6.1-6.5-9.9c-0.3,0.3-1.7,0.7-2.7,1.4c2,2.4,4.1,4.1,5.4,6.1
				c1,1.7,1.4,4.1-1.7,4.8c-0.7-1.7-1.4-3.1-1.7-4.8c-0.3,0-0.7,0.3-1.4,0.3c0.3,1.7,0.7,3.4,1,5.1c-7.8,3.7-15.3,7.8-23.1,11.6
				c-1.4,0.7-3.4,0-5.4,0.7c0.7,0.3,1.4,0.3,1.7,0.7c-11.9,7.8-24.1,15.3-35.7,23.8c-23.8,17.3-44.9,37.8-63.3,61.2
				c-2.4,3.1-5.4,5.4-7.1,9.2c-1,2-3.4,3.7-4.4,6.5c-1.4,3.4-4.1,5.1-8.2,5.1c-6.1,0.3-12.6,1.4-18.7,2c-0.3-0.3-0.3-0.7-0.7-1.4
				c3.1-4.8,5.8-9.2,9.2-14.3c1.4,1,2.4,2,3.4,3.1c-2.7-6.1,1.4-9.9,4.4-13.9c24.8-34.4,55.4-62.9,91.2-86.4
				c3.4-2.4,5.8-2.4,8.8,0.3c2.7,2.7,6.1,4.4,9.2,6.5c3.1-7.8-1.7-17.7,8.2-21.8c3.4-1.4,6.5-6.1,11.2-3.7c1.4-4.1,8.2-7.1,11.2-4.8
				c2-4.4,16-10.5,20.1-9.2c2-3.4,5.8-3.1,9.2-4.8c0.3,2.4,0.7,4.8,1,6.8c0.3,0,0.7,0,1.4,0c0-2.4,0-4.8,0-7.1
				c3.1-1.7,6.1-3.1,8.8,1.4c-0.7-4.4,1.7-5.1,4.4-5.8c16.3-3.4,32.3-7.1,48.6-10.2c1.4-0.3,3.1,0.3,4.4,0.7
				c1.4-0.7,2.7-1.7,4.4-1.7c17-1,34-1.7,50.7-2.4c1.7,0,3.7,0.7,5.4,1.4c1-0.3,2-1,3.4-1c10.2,1,20.4,1.7,30.3,3.1
				c1.7,0.3,3.1,2,4.8,3.4c0-0.3,0-1,0.3-2.7c7.1,1.4,14.3,2.7,21.4,4.1c0.7,0,1.7,0.3,2.4,0.7c4.4,0.3,7.5,2.4,7.8,7.5
				c0.3,2,2,4.1,3.4,6.1c0.7-0.3,1.4-0.7,2-1c-1.4-3.4-3.1-6.5-4.8-10.5c5.8,2.7,13.3,0.7,16.3,8.2c0-1,0.3-2,0.3-4.1
				c13.3,5.1,26.2,9.9,38.8,15.3c1.7,0.7,2,3.4,3.7,6.1c0.3-1.7,0.3-2.7,0.7-3.7c4.1-1.7,60.2,32.3,62.2,37.4c-2,1-3.7,1.7-5.8,2.7
				c0,0.7,0.3,1,0.3,1.7c1.7-0.3,3.4,0,4.8-0.7c3.4-1,6.5-1,8.8,1.4c10.2,8.8,20.4,17.7,30.6,26.9c5.8,5.4,10.9,11.6,16.7,17.3
				c2.7,2.7,3.7,5.4,3.4,9.2c-0.3,2.7,0,5.4,0,8.5c-1.4-0.7-2.4-1.4-3.4-2c-0.3,0-0.3,0.3-0.7,0.3c1,1.7,1.7,3.4,2.7,5.4
				c2.7-1,4.4-2.4,3.7-5.8c-0.3-2.4,0-5.1,0-8.8c3.7,4.4,6.8,8.2,9.9,12.2c-3.1,1-5.4,1.7-8.2,2.4c0,0.3,0,0.7,0,1
				c2.7,0.3,5.8,0.7,8.5,1c1.4,0.3,2.7,1,3.7,2c2,2,3.4,4.4,5.4,6.1c0.7,0.7,2.4,0,3.4,0c1.7-0.3,3.4-1,5.1-1.7
				c0.7,1.4,1,2.7,1.4,4.1c0.3,0,0.7,0,1,0c0.3-1.7,0.7-3.4,1.4-5.8c4.8-1,9.9-2.4,15-2.7c5.1-0.3,10.9-0.3,12.9,6.5c0-1,0-2,0-4.4
				c4.1,3.1,7.1,5.4,10.9,8.5c-4.4,0-7.8,0-11.6,0c0,1.7,0,2.4,0,3.4c-5.1-2-10.2-4.1-14.3-5.4c-5.8,1.7-10.9,3.4-16,5.1
				c0,0.3,0,0.7,0,1c4.8-0.3,9.2-0.7,13.9-1c0.7,1.4,1.7,3.1,2.7,4.8c0.3,0,0.7-0.3,1-0.3c0-1.4-0.3-2.7-0.7-4.1
				c6.5-1,13.9,4.4,16.7,12.2c2,5.8,3.7,11.6,5.4,17.3c8.8,28.9,17.7,57.5,26.9,86.4c3.1,9.9,6.1,20.1,9.2,29.6
				c-1.7,1.4-3.1,2.7-4.1,4.1c0.3,0.3,0.7,0.7,1,1c1-1,2.4-2,3.4-2.7c0.3,0,0.3,0.3,0.7,0.3c-0.3,0.7-0.3,1.4-0.7,2
				c0,1-0.3,2.4,0,2.7c5.8,4.4,4.4,10.2,3.1,15.6c-2,7.8-7.1,11.6-17,13.9c-1-1-1.7-2-3.4-4.1c0.7,6.1-3.7,6.5-7.1,7.5
				c-8.2,2.7-16.7,5.1-24.8,7.8c-18.7,5.8-37.4,11.6-56.1,17.3c-5.8,1.7-11.2,3.4-17.3,5.4c-4.8-6.8-9.5-13.6-14.3-20.4
				c-0.3,0.3-0.7,0.3-1,0.7c2.4,7.5,3.4,15.6,11.2,21.1c-5.1,1.7-9.2,3.1-13.3,4.4c-10.9,3.4-21.4,6.8-32.3,9.9
				c-3.4,1-7.1,1-10.9,1.7c0-0.3,0,0.7,0.3,1.7c-1.7,0.3-3.4,1-5.1,1.7c-0.7-1.7-1.7-3.1-2.4-4.4c-0.3,0-0.7,0.3-1,0.3
				c0,1.7,0,3.1,0,5.1c-23.1,7.1-46.9,14.6-70.4,21.8c0.7,1,1.4,2,2,3.1c3.1-1,6.8-2,10.5-3.1c1,1.7,2,3.1,3.1,4.4
				c0.3,0,0.3-0.3,0.7-0.3c0-1.7-0.3-3.4-0.7-6.5c1.7,1.4,2.7,2,4.1,3.1c0-1,0-2,0-3.4c6.5-1,12.2-5.4,19-4.1
				c1.4-3.4,13.9-7.1,17.7-5.1c1.7-3.7,8.5-6.1,11.9-4.4c2.4-1.4,4.1-2.7,5.8-3.4c19-6.1,38.4-11.9,57.8-18c3.7-1,6.8-1.7,9.2,2
				c0.7,1,2,2,3.7,3.4c-3.1,0-5.1,0-7.1,0c0,0.3,0.3,0.3,0.3,0.7c-1.4,0.7-2.7,2-4.1,2.4c-5.8,0.7-7.8,4.1-8.5,9.5
				c-3.4,20.7-9.9,40.8-19.4,59.5c-5.8,11.2-12.2,21.8-18.7,32.7c-1,2-3.4,3.4-5.1,4.8c-0.7,0.7-1.4,1-1.7,1.7
				c-3.7,9.5-11.6,16.3-19,25.2c-1.4-3.7-2.7-6.8-4.1-10.9c3.1-2.4,6.5-4.4,9.2-7.5c2.4-2.4,3.7-6.1,5.4-8.8
				c6.8-10.5,13.6-21.4,20.4-31.6c0.7-1,3.1-1.4,5.1-2.4c-1.4-0.7-2-1.4-2.4-1.4c4.8-12.9,9.5-25.8,14.6-38.4c0.7-1.4,2.4-2,2.7-2.7
				c0-3.1-0.3-5.4,0-7.8c1-5.1,2.4-10.2,3.4-15.6c-3.4-0.3-4.1,1-4.8,3.7c-2.7,9.9-5.4,19.7-8.2,29.9c-0.3,1-1.4,1.7-2.4,2.7
				c-1.7,2-4.4,3.4-4.1,6.8c0,1-1.4,2-2.4,3.4c-0.3-0.3-0.7-0.3-1-0.7c2-5.8,4.4-11.9,6.5-17.7c1.4,0.3,2.4,1,3.4,1.4
				c-4.1-3.7-1.7-7.5-0.7-11.2c1.4-5.1,2.4-9.9,4.1-15.6c-1.7,0.3-2.7,0.7-3.7,1c-13.3,4.1-26.2,8.2-39.5,12.2
				c-12.2,3.7-24.5,7.5-37.1,11.6c0.3-1.4,0.3-2,0.7-3.1c-0.3-0.3-0.7-0.3-1-0.7c-0.7,1.4-1.4,2.4-2,3.7c0,0.3,0.3,0.7,0.3,1
				c-2-0.3-4.4-0.3-6.1-0.7c-1.7,1-3.1,2.4-4.8,3.4c-2.4,1-4.8,1.7-7.5,2.4c-6.1,1.7-5.8,1.7-9.5-3.7c-3.4-5.1-7.1-10.5-11.6-15
				c0.3,9.5,5.1,16,13.6,21.1c-26.5,8.2-52.4,16.3-78.6,24.5c0-2.4,0-4.1,0-5.8c-0.3,0-0.7,0-1,0c-0.3,2-0.7,4.1-1,6.8
				c-10.5,3.1-21.1,6.5-32,9.9c-1.7-6.8-3.4-13.6-5.1-20.7c-1.7,0.7-2.4,1.4-3.7,1.7c1,5.8,2,11.9,3.1,17.7c-0.3,0.3-0.7,0.3-1,0.7
				c-0.3-1-0.7-2-1-3.4c-0.7,0.3-1.4,0.7-1.7,1c0.3,1.7,0.3,3.4,0.7,5.4c-2,0.7-4.8,1.4-7.1,2c-0.3-0.7-1-1.4-1.7-2.7
				c-0.3,0.7-0.7,1-0.7,1.4c-0.7,1-1,2.4-1.7,2.7c-30.6,9.5-61.2,19-91.8,28.6c-0.3,0-1,0-1.7,0.3c-0.3-2.7-0.7-5.4-1-8.8
				c10.5-2.7,21.1-5.4,31.6-8.5c4.4-1.4,8.2-3.4,12.6-4.8c1.7-0.7,3.7-0.3,5.4-0.3c1-0.7,2-2,3.4-2.4c7.1-2,14.6-3.7,21.8-5.8
				c9.5-3.1,19-6.8,28.9-10.5c-0.3-0.7-0.7-1.7-1.4-2.7c-15,4.8-29.9,9.2-44.9,13.9c-7.5,2.4-14.6,4.8-22.1,6.8
				c-2.4,0.7-5.1,0.3-7.5,0.7c0-0.3,0.3,0.3,1,1.7c-8.2,2.4-16.3,5.1-24.1,7.5c-0.3-2-0.7-3.7-1.4-5.8c-0.7,0-1,0-1.7,0.3
				c0,2,0,4.1,0,6.8c-1.4,0-2.7-0.3-3.7-0.3c-1,0.7-2.4,2-3.7,2.4c-50,15.6-100,31-150,46.6c-10.5,3.4-21.1,6.5-31.6,9.5
				c-3.4,1-6.8,2.4-10.2,2.7c-9.2,1.4-17.3-4.1-21.1-13.3c-0.3-1.4-1.7-2.4-2.7-4.4c2-4.1,4.8-8.8,7.1-13.9c-1-0.7-1.7-1-2.7-1.7
				c-0.3,0.7-1,1-1,1.7c-3.7,6.5-7.8,12.9-11.6,19.7c-0.3,0.7,0,2,0,4.4c2.7-3.1,4.4-4.8,6.1-6.5c2.7,4.1,5.4,7.8,8.2,11.9
				c0.7,0.7,1.7,1.7,2.4,2c3.4,1.7,6.5,3.7,8.5,7.5c1,1.7,3.4,2.7,5.1,4.1c0.3-0.3,1-1,1.4-1.4c-1.7-2-3.4-4.1-4.8-5.8
				c4.8-1,9.5-1.7,13.9-2.4c2,1.7,4.1,3.4,6.1,5.1c0.3-0.3,0.7-0.7,1-1c-1.4-1.7-3.1-3.4-4.8-5.4c45.9-14.3,92.2-28.6,138.1-42.9
				c1,1,1.7,2,2.7,3.1c0.3,0,0.3-0.3,0.7-0.3c-0.3-1-0.7-2-1-3.1c14.3-4.4,28.6-8.8,43.2-13.3c0.7,2.7,1.4,5.4,2.4,8.5
				c-13.3,4.1-26.5,8.2-40.5,12.6c1.4,1.4,2,2.4,3.1,3.1c18,17,38.4,30.6,61.2,40.8c30.6,13.9,62.9,20.4,96.6,19.7
				c8.8-0.3,17.7-1.4,26.5-2c3.1-0.3,5.1,0,5.1,3.7c-6.8,3.1-26.9,3.7-28.9,1.7c-1.7,0.7-3.4,1.7-5.1,1.7
				c-9.9-0.3-20.1-0.7-29.9-1.7c-7.8-0.7-16-2.4-23.8-4.1c-8.2-2-16-4.1-23.8-7.1c-7.8-2.7-15.6-6.5-23.5-9.5
				c-3.1-1.4-6.1-2.4-7.1-6.5c-0.3-1-1.4-1.7-2.7-3.4c-0.3,1.7-0.7,2.7-1,4.8c-3.1-2.4-5.8-5.4-9.2-6.5c-3.4-1-4.4-5.8-8.8-5.1
				c-0.7,0-1.7-1-2.4-1.4c-9.9-7.8-19.4-16-29.3-23.8c-1.4-1-3.4-1.4-5.1-2.4c-0.3,0.3-0.3,0.7-0.7,1.4c4.4,4.8,8.5,9.2,13.3,14.3
				c1.7,1,5.1,2,5.4,3.4c0.7,3.4-0.7,6.8-1,10.5c-0.3,0-1,0.3-1.4,0.3c-9.9-8.8-19.4-17.3-28.6-25.8c-1.7,1-3.4,2-5.1,2.7
				c-24.5,7.8-49,15.3-73.5,22.8c-1,0.3-2,0.7-3.7,1.4c1.7,1.7,3.1,3.4,4.4,4.8l0,0c-1,1.4-2,2.7-3.4,4.4c-1.4-1.7-2.7-3.1-3.7-5.1
				c-1.7-3.1-3.7-3.1-6.5-1c2.4,3.1,5.1,5.8,6.5,8.8c2,4.4,6.5,7.1,9.2,10.9c3.1,4.1,6.8,7.8,10.2,11.6c3.7,3.7,7.5,7.8,11.2,11.2
				c3.7,3.7,7.5,7.1,11.2,10.5c1.7,1.7,2.7,3.1,1.7,5.4c-1.4,4.1-2.4,8.5-3.4,12.6c-1.4,5.1-2,5.1-5.8,2
				c-20.4-17.3-38.4-36.4-54.4-57.8c-1.4-2-3.1-4.1-4.4-5.8c-2.7-4.1-4.8-3.7-9.5-2c-8.5,3.4-17.3,7.1-26.9,4.4
				c-2.7-0.7-5.1-2.4-7.8-4.1c-1-0.3-2.7-0.3-4.1-1.4c-5.4-3.7-9.5-9.2-11.6-15.6c-2.7-8.8-4.8-18-7.8-26.9
				c-2.4-8.2-5.4-16-8.2-24.1c-0.3-1-0.7-2-0.7-2c2.7-2,5.1-3.7,7.5-5.8c1-3.1,2.7-6.8,4.1-10.5c-0.3-0.3-0.3-0.3-0.7-0.7
				c-4.1,3.7-8.5,7.1-12.9,10.9c-1.4-5.4-4.4-10.9-4.4-16.7c-1.4-3.7-3.1-7.1-4.4-10.9c-4.4-13.9-8.5-27.6-12.9-41.8c1,0,2,0,3.7,0
				c-1.4-2-2.4-3.4-3.4-4.8c-0.3,0.3-0.7,1-1.4,1.7c-1-3.4-2-6.8-3.1-9.9c2.7,2.7,5.1,0.3,7.1-1c2.4-1.7,3.7-4.1,1.7-6.8
				c7.1,0.3,11.9-4.4,16.7-8.5c1-0.7,0.7-2.7,1-4.1c0.3,0.7,0.7,1.4,1.4,2c-1.7,0.3-3.7,0.3-5.1,1c-4.8,3.1-9.5,6.1-13.9,9.2
				c-0.7,1.4-1,3.1-1.7,3.7c-2,1.7-4.4,3.1-6.8,4.4c-5.8-15.6-1.4-31.6,11.6-39.1c5.8-3.4,12.9-5.1,19.4-7.5c6.1-2,6.1-2,6.5-8.5
				c0.3-8.8,1-17.7,1.7-26.5c0-0.3,0.3-0.7,0.3-1c3.4-0.7,4.4,1,4.4,5.4c1.7-2,2.7-3.1,4.1-4.4c-3.1-1-5.4-2-8.5-3.4
				c0.3-3.1,0.3-6.1,1-9.2c4.1-18.4,8.2-36.4,12.2-54.8c0.3-1.4,1.7-2.7,2.4-4.1c0.3-1.7,0-3.7,0.7-5.8c2-6.1,4.1-12.6,6.8-18.4
				c4.1-8.2,6.1-17.3,11.2-25.2c1,0.7,2,1.4,3.4,2c0.3-0.3,0.7-0.7,0.3-0.7c-3.7-3.7-1.4-6.8,0.7-10.2c2.4-3.7,4.4-7.8,6.8-11.9
				c5.4,2.7,10.9-5.1,15.6,0c3.4-2,6.5-3.7,9.5-5.4c0.3,0.3,0.3,0.7,0.7,1c-4.8,7.8-9.5,15.6-14.3,23.8c-1-2.7-1.7-5.4-2.7-7.8
				c-0.7,0.3-1.4,0.3-2,0.7c1,3.4,2,6.8,3.1,10.9c-12.2,23.5-22.1,49-28.6,75.8c-1,0-2,0-3.7-0.3c1,1.7,2,2.7,3.1,4.1
				c-0.7,0.3-1.4,0.7-1.7,0.7c1.4,7.1-2,13.6-2.4,20.4c-2.4-3.4-4.8-6.8-7.1-10.5c-2,2-3.4,3.1-5.1,4.8c3.1,3.7,6.1,7.5,8.8,11.6
				c0.7,1,1.7,2.7,1.7,4.1c-0.7,7.8-1.7,15.3-2,23.1c0,2.4-1.4,2.7-3.1,3.1c3.1-6.1-1.7-10.5-3.4-15.3c2-1,4.1-2,5.8-2.7
				c-1.7-0.7-3.4-0.7-4.8-1c-2.7-0.3-3.4,1-2.7,3.1c1.4,5.1,3.1,10.2,4.8,15.3c0,0.3,0.3,0.3,0.7,0.3c1,2.4,2.4,5.1,3.7,7.8
				c1,1,2.4,2.4,3.1,3.7c0.7,1.7,0.7,4.8-0.3,5.1c-3.1,1.4-6.1,3.7-9.2,1.7c-5.4,4.1-11.2,5.1-17.7,5.1c0,0.3,0.3,1,0.3,1.4
				c-0.7-0.7-1.4-1.7-2-2.4c-0.3,0-0.7,0-1,0.3c0,1,0.3,2,0.3,2.4c-5.4,2.7-11.9,4.4-16.3,8.2c-4.4,3.7-6.5,9.5-9.9,15
				c1.7,0.7,3.4,1.4,5.1,2.4c1.7-2.7-0.7-7.8,4.4-8.5c-0.7-4.1,2-7.1,8.2-9.5c6.5-2.4,12.9-4.1,19.4-6.1c7.1-2,14.3-4.4,21.8-6.5
				c0.7,2.4,1.4,4.4,2,6.5c0.3,0,0.7,0,1,0c0-2.4,0-4.4,0-7.5c12.9-3.4,25.8-9.9,40.1-9.2c1-0.7,2-1.4,3.1-2c0.3,0,0.7,0,1-0.3
				c0,1,0,1.7,0.3,2.7c0.3,1,0.7,1.7,1,2.7c2.4-3.1,4.1-5.8,6.5-8.2c1.4-1.4,3.4-2.7,5.4-3.1c5.1-1.4,10.9-2.4,16-3.7
				c5.4-1.7,10.5-4.1,16-6.1c1.7-0.7,3.7,0,5.4-0.3c1.7-0.3,3.7-0.3,5.1-1.4c6.8-5.1,15.3-6.1,23.1-8.8c9.2-3.1,18.4-5.8,27.6-8.5
				c1-0.3,1.7-0.3,2.7-0.7c0.3,0.3,0.3,0.7,0.7,1c-2.7,1.7-5.4,3.7-8.2,5.4c2,7.5,4.1,15.6,5.8,22.8c4.4,0.7,8.5,1.4,12.6,2
				c0-0.3,0.3-0.3,0.3-0.7c-2.7-1.4-5.4-2.7-8.2-4.1c-1-0.3-2.7-0.7-2.7-1.4c-1.4-3.7-2.7-7.8-3.4-11.6c-0.7-4.1,0-4.8,4.8-4.1
				c0.7-2,1.7-4.1,1.4-6.1c0-3.7,2-4.8,5.1-5.8c15.3-4.4,30.3-9.2,45.6-13.9c1-0.3,2.4,0.3,3.7,0.3c1.7-2.7,2.4-2.7,12.9-5.8
				c1,1.4,2.4,2.4,3.4,3.7c0.3,0,0.3-0.3,0.7-0.3c-0.3-1.4-0.7-2.7-1-4.4c8.2-2.4,16.3-5.1,24.5-7.5c1-0.3,2.4,0.7,3.1,1
				c1-1,2.4-2.4,3.7-3.7c0.3,0.3,0.3,0.3,0.7,0.7c-0.3,1.7-1,3.1-1.4,5.1c1.7-0.3,3.1-0.7,4.4-1c-0.3-1.4-0.7-3.1-1-4.8
				c10.9-3.4,21.8-6.8,32.7-10.2c0.7,1,1.7,2.4,3.1,4.4c-0.3-6.8,4.1-6.8,7.8-7.8c6.5-1.7,12.9-3.1,19-5.1c4.8-1.4,8.8-3.7,13.6-5.1
				c12.2-3.7,24.1-7.5,36.4-11.2c1.7-0.3,3.7,0,5.1,0c1.7-1,3.1-2.4,4.8-3.1c19-6.1,38.1-11.9,57.1-17.7c0.3-6.8-3.4-2.7-5.4-2
				c-12.2,3.7-24.5,7.5-36.7,11.2c-17,5.4-34.4,10.5-51.4,16c-8.5,2.7-17.3,5.4-25.8,8.2c-0.7-1-1.4-2-2.7-3.7
				c-0.3,2-0.3,3.4-0.7,5.1c-7.5,1.7-14.6,5.4-22.4,5.4c-1,1-2,2-3.4,2.4c-8.2,2.7-16.7,5.4-24.8,7.8c-1.4,0.3-3.1-0.7-4.4-0.7
				c-1,1-2,2.7-3.7,3.4c-13.3,4.4-26.9,8.5-40.1,12.6c-0.7,0-1,0.3-1.7,0.3c-0.3-1-0.3-2.4-1-4.8c-1.7,5.8-5.4,7.1-9.5,8.2
				c-7.1,2-13.9,4.4-21.1,6.5c-8.8,2.7-17.7,5.4-26.5,8.2c-15.6,4.8-31.3,9.5-46.9,14.6c-1,0.3-2.4,0.7-3.4,1
				c-0.3-0.3-0.3-0.7-0.7-1c2.7-2.4,5.1-4.8,7.8-7.5c1-1,1-2.7,2-3.1c4.1-1.4,8.2-2.7,12.2-3.7c0,0,0.3,0.7,0.7,1.4
				c1.7-3.7,18.4-8.5,20.7-6.5c1.4-1.4,3.1-2.7,4.4-4.1c0.3,0.3,0.7,0.7,1,1c-0.7,1-1.4,2-2,3.1c0.7,0.7,1.4,1.7,2,2.4
				c2.4-2.7,4.8-5.1,7.1-7.8c0.7-0.7,1.7-1,2.4-1.4c26.5-8.2,53.1-16.3,79.2-24.5c0.3,0,0.7,0,1,0c0.3,1,0.7,2,1,3.4
				c1-5.8,6.1-5.8,9.9-7.1c24.5-7.8,49.3-15.3,73.8-22.8c1.7-0.3,3.4-0.3,5.4-0.3c0.7-0.3,1.7-1.7,2.7-2c30.6-9.5,60.9-19,91.5-28.2
				c1.7-0.3,3.4,0,4.4-0.7c1-0.7,1.7-1.4,2.7-1.7c12.2-3.7,24.5-7.8,37.1-11.6c0.3,1.7,0.3,3.4,0.7,5.1c2.4-3.1,2.4-6.8,0-8.8
				c-33.7-31.3-73.1-50.7-118.7-58.5c-1.7-0.3-3.7-0.7-5.8-1c0-1.4-0.3-3.1-0.3-5.4c10.5,2.4,20.7,4.4,31,6.8
				c3.1,0.7,6.1,1.7,8.8,2.7c2,0.7,3.7,2.4,5.4,3.1c1,0,2.4-0.7,3.4-0.3c17,6.1,33,13.9,48,24.1c8.5,5.8,16.7,12.6,24.8,19
				c2,1.7,3.1,4.1,4.4,5.8c1.4,0.7,3.1,1,3.7,1.7c1.7,1.7,3.4,3.1,6.8,0c-10.2-8.5-20.4-16.7-30.6-25.2c-1.7-1.4-2.7-3.1-4.1-4.4
				c-1-0.7-2.7-0.3-3.4-0.7c-15.6-10.2-32.7-18.4-50.3-24.8c-1-0.3-2-2-2.7-3.1c-0.7-1-0.7-2-1.7-3.1c0,1.4,0,2.4,0,4.4
				c-1.7-0.3-3.1-0.7-4.4-1c-11.9-2.7-23.5-5.4-35.4-7.8c-3.4-0.7-4.4-3.1-5.8-5.4c-0.3,0-0.7,0.3-1,0.3c0.3,1,0.7,2.4,0.7,2.7
				c-13.9,0-27.9,0-42.2,0c-1.4,0-2.7-1.7-4.1-2.4c0,0.7,0,1.7,0,2.7c-5.8,0.7-11.6,1.4-17.7,2c-0.7-3.1-1.4-6.1-2-9.9
				c8.5-1,16.3-2,24.5-2.4c21.8-1.4,43.5,0.3,65,4.8c5.8,1.4,11.2,2.7,17,4.1c2.4,0.7,4.8,2.4,7.1,3.1c8.8,3.1,18,5.8,26.5,9.5
				c17.7,7.5,34,17.7,49,29.6c8.5,6.8,16.3,13.9,23.8,21.8c3.1,3.1,5.8,2.4,8.2,1.7c6.5-1.7,12.6-4.4,19-6.5
				c9.5-3.1,19-6.1,28.9-8.8c9.5-3.1,19-5.8,28.6-8.8c0.3,0,1-0.3,2-1c-4.4-5.8-8.8-11.2-13.3-16.7c-10.9-12.9-23.1-24.5-35.4-36.1
				c-3.1-3.1-6.1-5.4-9.9-7.8c-8.5-5.8-17-11.9-25.2-18c-1.7-1.4-3.1-2.7-4.4-4.4c-0.3-0.3-0.7-0.7-1.4-1
				c-8.2-4.1-16.3-7.8-24.1-11.9c-9.5-5.1-19.7-8.8-29.9-13.3c-5.4-2.4-11.2-5.1-16.7-7.1c-3.4-1.4-7.5-1.4-11.2-2.4
				c-3.1-0.7-5.8-1.4-7.5-4.8C506.6,58.5,505.9,57.9,505.6,57.2z M654.5,367.7c-0.7,3.4,1,4.8,4.4,5.8
				C659.3,369.4,657.6,368.1,654.5,367.7c0-5.4-4.1-7.5-8.2-10.2c-1.4-1-3.1-2.4-3.7-4.1c-2.4-6.5-4.4-12.9-6.8-19.4
				c0-0.3-0.7-0.7-2-1.7c0,3.7,0,6.5,0,9.5c-6.5,2-12.6,4.1-19,5.8c-1,0.3-3.1-0.3-3.4-1c-2.7-4.8-5.1-9.9-7.5-15.6
				c4.1-1.4,7.1-2.4,9.5-3.1c0.7,2,1.4,4.1,1.7,5.8c0.3,0,0.7-0.3,1-0.3c0-2,0-4.1,0-6.1c4.1-1.4,7.8-2.4,12.6-4.1
				c-4.1-6.5-0.3-15.3-7.8-20.7c-7.5,2-15.3,4.4-23.5,6.8c-1.7-6.1-3.7-11.9-5.4-18c4.1-1.4,8.2-2.4,11.9-3.7c0.7,1.4,1,2,2,4.4
				c1.7-8.5,9.2-6.8,13.9-9.9c-2-6.8-4.4-13.9-6.5-21.1c-18.7,5.1-36.7,11.6-54.8,17c0,5.8,4.8,10.2,2.4,15.6c0,0.3,1,1,1.4,1.4
				c0.3,0.7,1.4,1,1.4,1.7c1.7,5.4,3.4,10.9,5.1,16.7c-1.7-0.7-2.7-1-3.7-1.4c-0.3,0.3-0.7,0.3-0.7,0.7c5.4,4.1,7.5,9.9,9.2,16
				c2.4,8.2,5.1,16.3,7.5,24.5c2.7,8.5,5.4,17.3,8.2,26.2c1.7-0.7,3.4-1,4.8-1.4c9.9-3.1,19.7-6.1,29.6-9.2c1.4-0.3,3.4-0.7,3.7-0.3
				c2,2.7,6.5,4.1,6.5,8.5c0,1.4,2.4,2.7,3.7,4.8c1.7-7.8-4.4-10.2-7.5-15c4.4-1.4,8.5-2.7,12.6-3.7c0.7-0.3,2,0.3,2.4,0.7
				C647.7,367.4,650.8,368.1,654.5,367.7z M499.4,319.8c1-0.3,2-0.7,3.1-1.4c3.7,11.9,7.5,23.5,11.6,35.7c-2-1.7-3.7-3.1-5.1-4.4
				c-14.6-13.3-28.9-26.2-43.5-39.5c-1-1-2.7-2.4-3.7-2c-8.8,2.4-17.7,5.4-26.5,8.2c10.5,34,20.7,67.3,31.3,101.4
				c9.5-3.1,18.4-5.8,27.6-8.5c-5.8-18.7-11.6-37.1-17.7-56.1c1.7,1.4,2.7,2.4,4.1,3.7c14.6,13.3,28.9,26.2,43.5,39.5
				c2.4,2,4.4,2.4,7.1,1.4c6.5-2.4,13.3-4.1,19.7-6.1c1,1.4,1.7,2.7,3.1,4.4c0-4.1,0.7-7.1,0-9.9c-9.2-30.3-18.7-60.2-27.9-90.5
				c-0.7-2.4-1.4-4.4-2.4-7.1c-9.2,3.1-18.4,5.8-27.2,8.5c2,6.5,3.7,12.2,5.4,18.4c-0.3,0.3-0.7,0.3-1,0.7c-0.3-1-0.7-2-1-3.1
				c-0.7,0.3-1,0.7-1.7,1C498.7,316.4,499.1,318.1,499.4,319.8c-3.7-0.3-5.1,1.7-6.5,4.1c0.3,0.3,0.7,1,1.4,1.4
				C496,323.5,497.7,321.5,499.4,319.8z M311.7,355.1c10.5,33.7,20.7,67,31,100c6.1,0.7,10.9-6.5,17.3,0c-0.3-2-0.3-3.1-0.7-4.4
				c3.7-1,7.1-2.4,10.9-3.4c-6.1-18.7-11.9-37.1-17.7-56.1c15.3,13.9,29.9,27.2,44.6,40.5c1.7,1.7,3.1,3.4,4.8,5.8
				c5.8-1.7,12.2-3.7,18.4-5.4c1,1.7,1.7,3.1,2.7,4.4c0.3,0,0.7-0.3,1-0.3c-0.3-1.4-0.3-3.1-0.7-4.8c2.7-1,5.1-1.7,8.2-3.1
				c-10.5-33.7-20.7-67-31.3-101c-9.2,3.1-18.4,5.8-27.6,8.5c6.1,19,11.9,37.8,17.7,56.5c-9.2-8.2-18-16-26.9-24.1
				c-7.1-6.5-14.6-12.9-21.8-19.7c-2-1.7-3.4-2.7-6.1-1.7c-1,0.3-2.7-0.7-4.4-1C327,352.8,318.1,351.4,311.7,355.1z M132.8,521.8
				c16.7-5.8,32.7-11.2,48.6-17.3c7.1-2.7,12.2-8.5,15.6-15.3c8.5-16-0.3-34-18-37.1c-1-0.3-2-0.3-4.1-0.7
				c10.2-10.9,12.6-22.1,4.1-34c2-3.7,3.7-6.8,5.8-10.2c-0.3-0.3-0.7-0.3-1-0.7c-2.4,2.7-4.4,5.1-7.1,8.2
				c-6.8-5.8-14.6-8.2-23.5-7.5c-2.4,0-4.1,0-4.4-2.7c0-0.3-1-0.3-1.7-0.7c0,1.4,0,2.4,0,4.1c-4.4-0.7-8.8,3.7-12.2,0
				c-1.7,1.4-3.1,2.7-4.4,3.4s-3.1,0-4.4,0.3c-4.1,1.7-7.8,3.4-11.9,5.1c0-0.7,0-1-0.3-1.7c-1.7-0.3-3.4-0.7-5.4-1
				c0,1.7,0,2.7,0,3.7c-2.4,0.7-4.8,1.7-7.1,2.4c1.4,4.8,2.7,9.2,4.1,13.6c0.3,1.4,2.4,3.1-0.7,3.7c0.3,1.4,0.7,2.7,1.4,3.7
				c0.7,1,2,1.4,2.4,2.4c1.4,5.4,2.4,10.9,4.1,16.3c1.7,5.1,4.1,9.9,5.4,15C122.9,490.2,127.7,505.5,132.8,521.8z M690.9,353.8
				c0.3,0,1,0,1.4,0c-2.4-6.1,1.4-6.5,5.1-7.5c10.5-2.7,20.4-7.1,29.3-13.6c7.8-5.8,13.3-13.3,15.3-22.8c4.1-19-1.4-36.1-11.2-52
				c-1-2-1.7-4.1-3.1-6.1c-0.3-0.7-1.4-1-2.4-1.4c-0.7-0.3-1.7-0.3-2.4-1c-8.8-7.1-18.7-10.9-29.9-9.5c-9.5,1-19,3.4-28.6,5.4
				c-6.8,1.7-13.3,4.1-20.1,6.1c10.5,34,20.7,67.3,31.3,101.4c3.7-1,7.8-2.4,11.9-3.4C688.9,350.7,689.9,352.4,690.9,353.8z
				 M226,493.9c2.4-1.4,3.7-2.7,5.4-3.4c6.5-2,12.6-4.1,19-5.8c2.4-0.7,3.1-1.7,3.1-4.1c0-5.1,0-9.9,0-15.3
				c7.8-2.4,15.6-4.8,23.1-7.1c0,0.3,0.3,0.3,0.3,0.7c-1.4,1-2.7,2-4.1,3.4c0.3,0,1,0.3,1.4,0.3c1.4,6.8,2.4,13.9,4.1,21.4
				c4.4-6.8-2.7-12.9-0.3-19c6.1,1,1.7-5.1,5.1-6.1c2.4,3.4,4.4,7.1,6.8,10.9c0.7,1,2,2.4,3.1,2c8.8-2.7,17.7-5.4,27.2-8.2
				c-16.3-23.5-32.3-46.6-48.6-70.1c1.4,0,1.7,0,2.4,0c-0.7-1.7-2-3.1-3.4-4.1c-1-0.7-2.4-1-2.7-1.7c-2-2.7-4.1-5.8-6.1-8.8
				c-0.7-1-0.7-2.7-1.7-3.4c-2-2-4.4-3.7-6.8-5.4c-0.3,4.4-4.1,5.1-7.5,5.8c-3.1,0.7-6.1,0.7-8.2,0.7c-1,1-1.7,2-2.4,2.7
				c-1.4,0.7-2.7,1.4-4.1,1.4c-4.1,0.3-4.8,2.7-4.8,6.5c0.3,7.5,0,15,0,22.4c-1-0.3-1.7-0.3-1.4-0.3c0.3,5.8,1,11.9,1.4,17.7
				c0,20.7-0.3,41.5-0.3,62.2C225.3,490.2,225.6,492.2,226,493.9z M712,171.5c-0.7,0-1,0-1.7,0c0.3,4.8,0.3,9.5,0.7,13.9
				c-3.1,0.3-5.4,0.3-7.5,1.4c-3.4,1.4-5.4,0.7-5.8-3.4c-0.3,0-0.7,0.3-1,0.3c-0.3,1.7-0.3,3.4-0.7,5.4c-0.7,0.3-2,0.7-3.1,1
				c-21.1,6.5-42.2,12.9-63.3,19.7c-3.7,1-7.5,2.4-11.2,3.4c-3.7,1.4-7.8,2.4-11.6,3.7c-3.7,1-7.5,3.1-11.2,3.4
				c-3.7,0.3-6.8,2.4-9.9,3.4c-3.7,1-7.5,1.7-11.2,3.4c-3.4,1.7-7.1,2.4-10.5,3.4l-0.3,0.3c0.7,1,1.4,2,1.7,2.7
				c4.8-0.7,9.2-3.7,14.6-3.4c1-0.7,2.4-1.7,4.1-2.4c3.7-1.4,7.1-2,10.9-3.1c27.9-8.8,55.4-17.3,83.3-26.2
				c10.5-3.4,21.1-6.5,31.6-9.9c1.4-0.3,2.4-1.7,4.1-2.4c0.3,0.3,1.7,1,2.7,1.7c0-3.1,0-6.1,0-10.2c-1.4,1.4-2,2-2.4,2.7
				c-0.3,1,0,2,0,3.1c-0.3,0-0.7,0-1,0C712.7,179.3,712.3,175.2,712,171.5z M516.8,437.1c-0.3,7.1-3.7,10.9-10.5,12.6
				c-16,4.4-31.6,9.5-47.3,14.6c-10.9,3.4-21.8,6.8-32.7,10.2c0.3,1.4,0.7,2.4,1,3.4c17.3-5.4,34.4-10.5,51.4-16
				c1.7-0.7,3.7-0.3,5.8-0.7c1.4-1.7,25.5-10.2,29.6-10.2c1.7-2.7,3.1-5.1,4.4-7.8C519.5,441.2,519.8,438.8,516.8,437.1z
				 M47.1,421.8c3.7,13.9,7.5,27.6,11.2,40.8c2,7.1,5.1,13.9,7.5,21.1c1,3.4,2,6.5,6.1,7.5c0-0.7-0.3-1-0.3-1.7
				c-6.5-20.7-12.9-41.2-19-61.9c-0.3-1.7-0.3-3.7-0.3-6.1c0,0-1-0.7-2-1.7C49.4,421.1,50.1,423.8,47.1,421.8z M85.2,546.3
				c3.4-1,4.8-5.1,3.1-7.1c-1.4-1.4-2.4-3.1-3.1-4.8c-2.4-7.1-4.4-14.3-6.5-21.4c0-0.3,0-0.7,0-1c1,0.3,2,0.7,3.1,1
				c0.3-0.3,0.3-0.7,0.7-1c-2.4-2.7-4.8-5.4-7.1-8.2c-0.3,2.4-1.4,4.8-0.7,6.8C77.7,522.1,81.4,534,85.2,546.3z M187.2,371.1
				c1.4-0.3,2.4-0.3,3.7-0.7c-0.3-1,0-2.4-0.7-3.1c-2-3.7,0.3-5.4,3.1-7.5c2.7-2,5.4-4.1,8.2-6.1c0.3-0.3,0-1,0.3-1.4
				c-6.1-1.7-17.3,8.5-24.1,21.1c3.4-2,6.5-4.1,10.2-6.5C187.5,368.7,187.5,369.8,187.2,371.1z M547,233.7
				c9.9,3.7,18.7,7.1,27.6,10.2c0-0.3,0.3-0.7,0.3-1c-8.2-8.2-19.7-9.5-30.3-15.3C545.7,230.3,546.7,232.7,547,233.7z M290.9,478.9
				c-0.3,6.1-0.7,11.9-0.7,18c0,0.3,0.3,1,0.3,1c3.4,1.4,6.5,4.4,11.9,2.4c-2-1.4-3.1-2.7-4.4-3.1c-2.4-0.7-3.1-1.4-2.7-4.1
				c0.3-3.1,0.3-6.1,0.3-9.2C295.7,480.6,293.7,479.6,290.9,478.9z M402.8,332.7c0.7,0,1,0,1.7-0.3c-1.4-13.3-2.7-26.5-4.1-39.8
				c-0.3,0-0.7,0-1,0c-0.7,1.4-1.7,2.7-2.4,4.1c0.3,0,0.7,0,0.7-0.3C399.4,308.5,401.1,320.4,402.8,332.7z M450.8,274.5
				c-0.7,0.3-1.4,1-2,1.4c3.1,4.8,6.1,9.5,9.2,14.6c0,0.3,0.3,0.3,0.7,0.7c0.7,1.4,2,2.7,2.4,4.1c0.7,5.4,3.1,7.8,8.8,8.5
				C463,293.2,456.9,283.7,450.8,274.5z M423.2,460.6c-0.3-7.1-0.7-14.6-6.5-20.1C416.4,448,417.1,455.1,423.2,460.6z M325.6,472.8
				c-0.7,0.3-1,0.3-1.7,0.7c2,6.5,3.7,12.9,5.8,19.4c0.3,0,1-0.3,1.4-0.3c0.3-4.1,0.3-7.8,0.7-10.5
				C329.4,478.3,327.7,475.5,325.6,472.8z M612.7,248.3c0-0.3,0.3-0.7,0.3-1c-8.5-3.7-17-7.5-25.5-11.2
				C594,244.9,604.2,245.3,612.7,248.3z M778.3,344.9c-0.3,0.7-0.7,1-1,1.7c2,6.1,9.5,6.5,12.9,11.6c-0.3-5.4-3.7-9.5-5.1-8.8
				C782.4,347.7,780.4,346.3,778.3,344.9z M736.5,349c-2,6.8-4.1,13.3-6.1,20.4c2-0.3,3.4-0.7,5.1-1.4c-2-4.8-0.3-8.8,2.4-12.2
				C739.9,353.1,739.2,351.1,736.5,349z M752.1,247.7c-1.4,8.5-2.7,17.3-4.1,26.5C752.8,268.1,755.2,249.4,752.1,247.7z
				 M282.4,398.7c2-1.4,3.4-2,5.1-3.4c-2.7-3.1,0-9.2-5.8-11.2C281.7,389.1,282.1,393.6,282.4,398.7z M201.8,427.9
				c3.1,4.8,6.1,9.5,9.2,14.3C210.3,432.7,206.9,427.9,201.8,427.9z M275.6,490.8c-0.3,0-0.7-0.3-1-0.3c-3.1,4.4-4.4,9.5-4.4,15
				c0,2.4,2,3.7,5.1,3.4c-1-0.7-2.4-1.7-3.7-2.4C272.9,501.4,274.3,496.3,275.6,490.8z M273.9,371.8c-2,2-3.4,3.1-4.8,4.4
				c0.7,2.7,1.7,6.1,6.8,5.8C275.3,378.3,274.6,374.9,273.9,371.8z M521.5,416c-4.1,5.8,2,8.5,3.4,12.9
				C527,425.5,526.3,423.2,521.5,416z M719.2,369.1c1.4-5.4,2.4-10.9,3.7-16c-0.3,0-0.7,0-1-0.3
				C718.8,357.9,716.1,362.6,719.2,369.1z M485.5,305.1c6.1,12.2,6.1,12.2,8.8,12.2C491.9,313,490.2,307.9,485.5,305.1z
				 M755.2,329.6c-1,3.7-2,7.5-2.7,11.6C756.9,338.1,757.9,334,755.2,329.6z M162,378.6c0.7-0.3,1-0.3,1.7-0.7
				c-1.4-3.7-2.4-7.1-3.7-11.2c-0.7,0-1.7-0.3-3.7-0.7C158.3,370.8,160,374.5,162,378.6z M650.8,341.2c-2.4,5.8-2.4,5.8,1,9.5
				C654.2,349,653.8,345.3,650.8,341.2z M419.2,343.2c-0.3,0-1,0-1.4,0.3c0,4.4-0.3,9.2,2.7,12.9c0.3,0,1-0.3,1.4-0.3
				C420.9,351.7,420.2,347.3,419.2,343.2z M311.3,495.9c1.7-4.1-1.4-9.5,5.1-10.9c-1.7-0.3-3.4-0.3-4.4-0.7c-1.4,2.4-2,4.4-3.1,6.5
				C309.3,492.2,310,493.6,311.3,495.9z M717.4,236.4c-0.3-4.4-0.7-7.5-5.8-7.1c0.3,3.1,0.7,6.1,1,9.2c0.3,0,0.7,0,1,0
				c0-1.7,0.3-3.4,0.3-5.4C715.4,233.7,716.1,234.7,717.4,236.4z M640.6,264c0.7-5.4,1-10.5,1.7-16
				C638.5,256.5,638.2,263.3,640.6,264z M790.6,319.4c-0.7,4.8-1.4,9.5-2,14.3c0.3,0,0.7,0,1.4,0C793,329.3,792.3,324.5,790.6,319.4
				z M102.5,394.9c0.3-0.3,1-0.7,1.4-0.7c-0.7-1.4-1-3.1-2-3.7c-2.7-1.4-5.8-2-8.8-3.1C94.3,392.6,100.5,390.8,102.5,394.9z
				 M633.4,287.1c-3.4,0.7-4.1,3.4-3.7,6.1c0.3,1,2.7,1.7,4.4,2.4C634.1,292.6,633.8,289.8,633.4,287.1z M96,459.9
				c-2.4,3.4,1,7.8,7.1,9.2C100.5,465.7,98.4,463,96,459.9z M114.4,232.4c-0.3,0.3-1,0.7-1.4,1c1,1,1.7,3.1,2.7,3.4
				c1.7,0.3,3.7-0.3,5.4-1c1-0.7,1.4-2.4,1.7-3.7c-0.3,0-0.7-0.3-1-0.3c-1.7,1.4-3.1,2.7-4.8,4.1
				C116.1,234.4,115.1,233.4,114.4,232.4z M318.1,343.6c0.3-0.3,0.3-0.3,0.7-0.7c2.4,1.4,4.8,2.7,7.5,4.8c-1.4-5.1-5.8-6.1-9.2-8.5
				C317.5,340.5,317.8,342.2,318.1,343.6z M115.8,501.4c-0.3-0.3-1-0.7-1.4-0.7c-2,3.7-3.7,7.1-5.8,10.9c0.7,0.3,1.4,0.7,2,1
				C112,508.9,114.1,505.1,115.8,501.4z M743.6,325.2c0.3-3.1,5.4-5.8,0.7-9.5C745.3,319.1,740.6,321.8,743.6,325.2z M129.4,390.5
				c0.3-0.3,1-1,1.4-1.4c-2.7-2.7-5.1-5.4-7.8-7.8c-0.7,0.3-1,1-1.7,1.4C124.3,385.1,126.7,387.8,129.4,390.5z M697.4,195.6
				c-1.7,5.4-0.3,7.8,4.1,8.8C700.1,201.4,698.7,198.3,697.4,195.6z M498.7,390.8c-0.3,0.3-1,0.7-1.4,0.7c2,3.4,4.4,6.8,6.5,10.5
				c0.7-0.3,1-0.7,1.7-1C503.2,397.7,501.1,394.3,498.7,390.8z M685.5,219.4c0-0.3,0-0.7,0.3-1c-3.4-0.7-7.1-1-10.5-1.7
				C678,219.4,681.4,220.8,685.5,219.4z M193.7,366.7c-1,3.7-1.7,5.8-2.4,8.5c2-0.3,3.4-0.7,5.8-1
				C195.7,371.8,195,369.4,193.7,366.7z M283.1,371.8c-0.3,0-1,0-1.4,0.3c0.3,2.7,0.7,5.4,1.4,8.2c0.3,0,1,0,1.4-0.3
				C286.5,376.9,285.5,374.2,283.1,371.8z M761.7,288.8c1.7-6.5,1.4-7.5-4.1-9.9C758.9,282.3,760.3,285.4,761.7,288.8z M741.9,275.5
				c0.3-0.3,0.7-0.3,1-0.7c0-1.7,0.3-3.4,0-5.1c0-0.7-1.4-1-1.7-1.7c-0.3,0.7-1.7,1.4-1.4,2C740.2,272.1,741.3,273.8,741.9,275.5z
				 M82.1,496.6c1.7-4.8,1-6.8-2.4-7.5c-0.3,0-2,1-1.7,1C79.4,492.2,80.7,494.2,82.1,496.6z M197.7,461.3c0.7-0.7,1-1,1.7-1.7
				c-2.4-2-4.8-4.4-6.8-6.5c-0.3,0.3-1,1-1.4,1.4C193.3,456.8,195.4,459.2,197.7,461.3z M77.3,460.6c-2.4-2.7-4.4-5.4-6.8-8.2
				C70.5,457.5,72.9,459.9,77.3,460.6z M90.6,452.4c2.4,1.7,1,6.5,5.4,6.8C95,455.8,95.4,452.1,90.6,452.4z M452.5,412.6
				c0.3-0.3,0.7-0.3,1-0.7c-0.3-3.1-0.7-5.8-3.7-7.1c-0.3,0.3-1,0.7-1.4,0.7C450.1,407.9,451.1,410.2,452.5,412.6z M728.3,183.4
				c-0.3,0-0.7,0-1,0c0,3.4,0,6.5,0,9.9c0.7,0,1,0,1.7,0C728.7,189.8,728.3,186.4,728.3,183.4z M111.7,399c0.3-0.7,0.3-1,0.7-1.7
				c-1.4-0.7-3.4-2.7-4.1-2.4c-2,1-3.4,3.1-5.1,4.4c0.3,0.3,0.7,0.7,1,1C106.2,398.7,107.9,395.3,111.7,399z M265.8,64.3
				c0.3,2.4,1,4.4,1.4,6.5c3.4-2,1.7-5.1,2-7.8C267.8,63.6,266.8,64,265.8,64.3z M134.1,545.9c-1.7-2.7-3.1-5.1-5.1-7.8
				C128,543.9,129.7,545.9,134.1,545.9z M97.1,522.8c2,2.7,3.4,4.4,5.1,6.5C103.9,525.5,102.5,523.5,97.1,522.8z M740.2,339.2
				c-1.7,3.4-1.7,6.8,2,10.2C741.6,345.3,740.9,342.2,740.2,339.2z M476.6,299c-0.7,0.3-1,0.7-1.7,1c1.4,2,2.4,4.1,3.7,5.8
				c0.3-0.3,0.7-0.3,1-0.7C479.7,302.8,480,300,476.6,299z M101.5,251.4c0-3.4,0-6.1,0-9.2C98.4,246,98.4,248.3,101.5,251.4z
				 M299.8,327.9c-0.3,0.3-0.7,0.7-1,0.7c0.7,2.4,0,5.4,3.1,6.1c0.7-0.3,1-0.7,1.7-1C302.2,331.7,300.8,330,299.8,327.9z
				 M189.9,429.3c-0.7,1.4-2.4,3.1-2,3.4c1,1.4,2.4,2.7,3.7,3.7c0.3-0.3,0.7-0.7,1-0.7C192,434,191.3,432.3,189.9,429.3z M646,301.4
				c-0.3,0.3-1,0.7-1.4,1c0.7,2.7,2.7,3.7,5.1,5.1c0.3-0.3,0.7-0.7,1-1C649.4,304.8,647.7,303.1,646,301.4z M162,537.1
				c-0.7-2.7-1.4-4.8-2-6.8c-0.3,0-1,0.3-1.4,0.3C157.9,533.4,157.9,535.7,162,537.1z M401.1,493.2c0.7,0,1.4,0,2,0
				c0-1.7,0.3-3.4,0-4.8c0-0.3-1.7-0.7-2.7-1C400.8,489.1,401.1,491.2,401.1,493.2z M311.7,378.3c-0.3,0-0.7,0-1,0
				c0,2.7-0.3,5.4-0.3,8.2c0.7,0,1,0,1.7,0C311.7,383.7,311.7,381,311.7,378.3z M720.5,216c-0.3,0.3-1,0.3-1.4,0.7
				c1,2.4,1.7,4.4,2.7,6.8c0.3-0.3,1-0.3,1.4-0.7C723.2,220.4,723.2,217.7,720.5,216z M754.9,280c0.7-1.7,2-2.7,1.7-3.4
				c-1-1.4-2.4-2.7-3.4-4.1c-0.3,0.3-0.3,0.3-0.7,0.7C752.8,275.2,753.5,276.9,754.9,280z M100.1,434.7c-0.7-3.1-1-5.4-1.4-7.5
				c-0.7,0-1,0.3-1.7,0.3C97.7,429.6,95.4,432.3,100.1,434.7z M743.3,241.9c0.3,0,0.7-0.3,1.4-0.3c-0.7-2-1.4-4.1-2-6.5
				C739.9,238.1,739.9,238.1,743.3,241.9z"/>
			<path d="M657.6,641.5c-6.5,5.1-13.3,10.2-19.7,15.3c-5.1,4.1-9.9,8.2-15.3,11.9c-5.4,3.7-11.2,7.1-17.3,11.2
				c-0.7-3.4-1.4-6.1-2-8.8c-3.4,2-3.1,6.1,0.7,9.9c-5.4,2-9.2,7.1-15.6,6.8c-0.3,0.7-1,2-2,2.7c-3.7,2-7.5,3.7-11.2,5.4
				c-1,0.3-2.4,0.3-3.4,0.7c-2.4,0.7-4.8,1-6.8,2c-5.8,3.1-11.2,6.5-17,9.9c-2.4-4.1-4.1-7.1-6.1-11.2c-4.1,5.8,1,7.8,3.4,10.9
				c-1.4,0.7-2.4,1-3.4,1.4c-2-2.7-3.7-5.4-5.8-7.8c-0.3,0.3-0.7,0.3-1,0.7c1.4,2.4,3.1,5.1,4.8,7.8c-4.8,1.4-9.2,3.1-13.9,4.1
				c-1,0.3-2.4-1.4-4.1-2.7c0,1.4,0,2.7-0.3,4.1c-9.9,2.4-19.4,5.8-29.6,5.8c-1.4,0.7-2.7,1.7-3.7,1.7c-15.3,1.7-30.6,3.4-45.6,4.8
				c-10.9,0.7-21.8,0.7-32.7,0.7c-3.4,0-6.8-0.3-8.5-5.4c-1,2-1.4,3.4-2,4.8c-4.8-0.3-9.9-1-14.3-1.4c-1-2-1.7-3.7-2.4-5.1
				c-0.3,0-0.7,0-1,0c-0.3,1.4-0.3,2.7-1,4.8c-2-0.7-3.7-1.4-5.4-2.4c-0.3,0-1-0.3-1.4-0.3c-3.4,0.7-3.4,0.7-3.7-2.7
				c-2.4,4.1-5.8,2.7-8.8,2c-4.8-1-9.9-2-14.6-3.1c-0.3-2-0.7-4.1-1-5.8c-0.3,0-0.7,0-1,0c0,1.7-0.3,3.1-0.7,5.4
				c-11.9-3.4-23.8-6.8-35-10.2c0.7-1.7,1.4-2.7,1.4-4.1s-0.7-2.7-1-4.1c-0.3,0-0.7,0-1,0.3c0,1,0,2-0.3,3.1c-0.3,1-1,2-2,3.4
				c-3.4-1.4-6.8-2.4-9.9-3.7c-0.3-2.7-0.7-5.1-0.7-7.1c-0.7,0-1,0-1.7,0c0,1.7-0.3,3.4-0.7,6.1c-5.8-2.4-11.2-4.8-16.7-7.5
				c-5.8-2.7-12.2-4.1-13.9-12.2c-0.3,0.3-0.7,0.3-1,0.7c-0.3,1-0.3,2-1,3.7c-2.4-1.4-5.8-2-7.1-4.1c-1.4-2-0.7-5.1-1-8.2
				c-1,2-2,4.1-3.4,6.1c-1-0.7-1.7-1.4-2.4-2c-1-1.7-1.7-3.4-4.4-2.4c-0.7,0.3-1.7-0.7-2.4-1c-7.1-4.8-13.9-9.2-21.1-13.9
				c-3.4-2.4-6.8-5.1-10.2-7.8c-3.4-2.7-4.8-5.8-3.7-10.2c1.4-5.1,2.4-9.9,3.4-15.6c2,1.7,4.1,3.4,5.8,4.8
				c12.2,8.8,24.5,18,37.1,26.5c12.9,8.5,26.9,15.3,41.2,21.4c6.8,3.1,13.9,5.4,21.1,8.5c3.4,1.4,8.2,1.4,8.8,7.5
				c0.7-2,1-2.7,1.7-4.1c36.4,11.9,74.1,17,112.6,16c-0.3,3.4-0.3,6.5-0.7,9.5c-0.3,0-0.7,0-1,0.3c-0.7-1.4-1.7-2.7-2.4-4.1
				c-0.3,0-0.7,0-1,0c0,3.1,0,5.8,0,9.5c4.4-3.1,5.4,1.4,8.5,3.1c0-6.8,0-12.6,0-19.4c6.1,1.7,12.2-3.1,17.3,2.4
				c0-0.7,0.3-2,0.7-3.1c32.3-3.1,63.6-10.9,93.9-23.5c0.7,1,1,2,1.7,2.7s1.4,1.7,2.7,2c-0.7-1.7-1-3.4-1.7-5.1
				c14.6-7.5,28.9-14.6,43.5-22.1c2,1.4,4.1,3.1,6.5,4.4c0,2.7-1,6.1,3.4,8.2c-0.3-3.4,1.7-7.1-3.4-7.8c0.3-1,1-2.4,0.7-3.1
				c-3.1-3.4-0.7-6.1,1.7-7.8c15-9.9,28.9-20.4,42.2-32.7c2.7-2.7,5.8-5.4,8.5-8.2c1-0.7,2.4-1.4,3.7-2c0.3-0.3,0.3-2,1.4-3.1
				c4.8-5.1,9.5-10.2,14.3-15.3c1,0.7,2,1.4,3.1,1.7c-2-5.1,1.7-7.5,4.1-10.5c9.5-13.9,19.4-27.9,28.9-41.8
				c4.4-6.8,8.8-13.6,11.9-20.7c5.8-12.6,10.5-25.8,15.3-38.8c8.2-22.1,12.9-45.2,15.6-69c0-0.3,0.3-0.7,0.3-1.7c1,1,1.7,2,2.7,2.7
				c0.3,0,1,0,1.4-0.3c-5.1-10.2-1-20.7-2-31.3c0.3,0,1,0,1.4,0c0,1.7,0.3,3.4,0.3,5.1c3.1-3.1,3.4-6.8,0.7-9.9
				c-2.4,2-4.8,4.1-6.8,6.1c-0.3,0.3-0.3,1.4-0.7,2.4c-0.3,1.7,1,4.1-2,5.1c-0.3,0-0.3,1.4,0,2c2.4,7.5,1.4,15-2,22.1
				c-0.7,1.4,0,3.4,0.3,5.1c0,1,0.3,2,0,3.1c-0.7,3.7-1,7.1-2,10.9c-1.7,8.5-3.7,16.7-5.8,25.2c-2.4,8.5-4.8,16.7-7.8,24.8
				c-2,5.1-5.8,9.9-8.8,14.6c-0.3-0.3-1-0.3-1.4-0.7c1-2.7,2.4-5.4,3.1-8.2c3.1-8.5,5.8-17.3,8.8-25.8c0.3-1.4,0-4.1,3.1-3.4
				c0,0,0.7-1.7,0.7-2c-2.7-2-0.7-4.4-0.3-6.5c5.1-20.7,8.5-41.5,9.5-62.9c0-1.4,0-2.4,0-4.1c-2,0.3-3.7,0.7-5.4,1
				c-0.3-0.3-0.3-0.3-0.7-0.7c1.4-1.7,3.1-3.4,4.4-5.4c-0.7-0.3-2-1-3.7-1.7c-1,1.7-2.7,3.4-3.1,5.1c-1,3.4-3.1,4.8-6.5,5.8
				c-9.9,2.7-19.7,6.1-29.6,9.2c-1.4,0.3-3.1,0.7-5.1,1.4c0.7-2,1-3.4,1.7-5.1c-2.4-0.7-4.4-1.4-7.1-2.4c6.5-2,12.2-3.7,18-5.8
				c5.4-1.7,10.9-3.4,16.3-5.1c5.8-1.7,11.9-3.4,17.7-5.1c5.4-1.7,10.9-3.7,16.3-5.4c5.8-1.7,11.6-3.7,17.7-5.4
				c-0.3,5.4,0.7,11.6-1.7,15.6c-2.4,4.1-2.4,9.2-5.4,12.9c-2,2.7-2.4,5.8-0.3,9.9c1.7-5.1,3.1-9.2,4.4-13.6c0.3,0,1,0,1.4,0.3
				c-0.7,9.2-1.7,18.7-2.4,27.9c-0.3,0-1,0.3-1.4,0.3c-1.4-4.4-3.1-8.8-4.8-14.6c-1.4,8.8-6.5,15.3-7.5,23.1c0.3,0,0.7,0.3,1,0.3
				c1.7-4.1,3.4-8.2,5.4-13.3c2.4,2.4,4.1,4.4,5.8,6.1c0.3,0,0.7,0,1,0c-3.4,15-6.1,29.9-10.2,44.6c-4.1,14.6-9.2,28.9-15,43.2
				c-5.8,13.9-12.6,27.2-20.4,40.1c-7.5,12.9-15.6,24.8-24.1,37.4c-3.7-5.4-7.5-10.5-10.9-15.6c-0.3,0.3-1,0.7-1.4,1
				c2.7,4.8,5.8,9.2,8.5,13.9c-2.7,2.7-5.8,5.1-4.1,9.5c0.3,0.7-1,2-1.7,2.7c-3.1,3.7-6.1,7.1-9.5,11.2c-0.7-0.7-1-1.4-1.4-2
				C680.4,623.5,668.1,632,657.6,641.5c-2-1.7-4.1-3.4-6.1-5.4c-0.3,0.3-0.7,0.3-1,0.7c0.3,2,0.3,4.1,0.7,6.1
				C653.8,642.2,655.9,641.9,657.6,641.5z M585.1,681.3c-4.1,0.7-7.5,1.4-11.9,2.4C579.4,686.4,582.1,686.1,585.1,681.3z
				 M752.5,474.2c2.7,2,3.7,6.1,8.2,6.5C759.3,476.6,755.2,473.5,752.5,474.2z M660,624.9c2.7,8.2,2.7,8.2,5.1,8.8
				C664.7,630.3,664.7,626.9,660,624.9z M223.9,648.3c-3.1-2.4-5.1-4.1-7.1-5.8c-0.3,0.3-0.7,0.7-1,1.4
				C217.1,647,218.8,649.3,223.9,648.3z M557.9,695.9c-0.7-1.7-1.4-3.1-2-4.4c-0.3,0-0.7,0-1,0c-0.7,2.4-1.4,4.8-2,6.8
				c0.3,0,0.7,0.3,0.7,0.3C555.2,697.6,556.2,697,557.9,695.9z M754.5,469.4c-1.7-5.8-1.7-5.8-5.8-3.4
				C750.8,467.4,752.5,468.4,754.5,469.4z"/>
			<path d="M215.8,292.2c-0.7,4.4-1.4,8.8-2.4,14.3c-1.7-2-2.4-3.1-3.7-4.8c0,1.7,0,2.7,0.3,3.1c4.1,6.1-1.7,11.2-2,17
				c-5.8,2,0.3,6.1-2.4,9.5c2.7-0.7,4.1-1,5.8-1.4c0.3,0.3,0.7,0.7,0.7,0.7c-2.7,2.4-5.8,5.1-8.5,7.8c-1-0.7-1.7-1.7-2.7-2.4
				c-0.3,0-0.3,0.3-0.7,0.3c0.7,1,1,2,2,3.7c-1.7,1-3.4,2.4-5.4,3.1c-12.6,4.1-25.5,7.8-38.1,11.9c-3.4,1-6.8,3.4-10.2,5.1
				c-1-1-2.4-2-4.1-3.7c-0.3,2.4-0.3,4.8-1.4,5.8c-1.7,1-4.1,1-5.8,1.7c-1.7-3.4-3.4-6.5-5.1-9.5c2.4-0.7,5.1-1.7,7.8-2.7
				c9.2-3.1,18.7-5.8,27.9-8.5c2.7-0.7,5.4-0.7,7.8-0.7c1.4-1,2.7-2.4,4.4-3.1c5.8-2,5.8-2.4,6.5-8.5c1-6.5,2.7-12.9,4.4-19.4
				c0.3-0.7,1.7-1.4,2.7-2c-2-2.7-1.4-5.4,1-8.5c1-1.4,0.3-3.4,1-5.1c2-5.4,3.7-11.2,6.5-16.3c6.8-13.6,13.9-26.9,21.1-41.2
				c1.4,2.7,2,4.1,2.7,5.8c0.7-1,1-1,1-1.4c-2.4-4.4-0.3-7.8,2.4-11.2c6.1-7.1,11.6-14.3,17.7-21.8c1.4,0.7,2,1.4,3.1,2
				c0.3,0,0.3-0.3,0.7-0.3c-0.7-1-1-1.7-1.7-3.1c16-16.7,33.7-31,53.7-42.5c4.4-2.4,8.8-4.8,13.3-7.1c1.4-0.7,2.7-0.3,4.8-0.7
				c0.7-0.7,1.7-2.4,3.1-2.7c17.7-8.2,35.7-13.9,54.8-17.7c0.3,0,1,0,2,0c0.7,3.1,1.4,6.1,2,9.2c-6.5,1.4-12.2,2.7-18,4.1
				c-0.7-1.7-1.4-3.4-2-5.1c-0.3,0-0.3,0-0.7,0.3c0,1.7,0,3.7,0,5.4c-3.1,1-5.8,2-8.5,2.7c-2.7,0.7-5.8,3.1-8.2-1
				c0.3,1,0.7,2,1.4,3.7c-3.1,0.3-6.1,1-8.8,1.4c-0.7,0.7-1.4,2-2.7,2.4c-15.6,6.8-30.6,14.6-44.6,24.8c-6.5,4.8-12.6,10.2-19,15
				c-1.4,1-3.1,1.7-4.8,2.4c-0.3,0.7-0.3,2-1,2.7c-7.5,8.2-15.3,16-23.1,24.1c-0.3-0.3-1-1-1.7-2c-0.3,0-0.7,0-1,0
				c0,1.7,0.3,3.1,0.3,5.4c-3.1,4.1-6.5,8.8-9.9,13.9c-0.7-0.3-1.7-0.7-2.4-1.4c-0.3,0.7-0.7,1-0.3,1.4c1.4,2.7,0,5.1-1.4,7.5
				c-11.2,18-19,37.8-25.5,57.8c-1.4,4.4-2,9.2-3.1,13.9c-0.7,2.4-1,4.8-1.7,7.1c3.7,0.7,4.4-1.4,5.1-3.7
				c3.4-12.6,6.8-24.8,10.2-37.4C213.4,292.2,214.7,292.2,215.8,292.2L215.8,292.2z M164.7,345.6c-5.8,1-9.5,4.4-8.8,7.5
				C159,351.1,163.4,350.4,164.7,345.6z"/>
			<path d="M326.6,587.4c15.3,4.8,30.6,9.9,45.9,14.6c2.4,0.7,4.8,1.7,7.8,2.7c1,0,2.7-0.3,4.4-0.3c10.2,1,20.1,2.4,30.3,3.4
				c3.4,0.3,6.8,0.3,10.2,0.7c0,1.4-0.3,2.7-0.3,4.1c0.3,0.3,0.7,0.3,1,0.7c0.7-4.8,2.4-4.8,6.8-4.4c8.5,0.3,17-1.4,25.2-3.1
				c4.1-0.7,7.1-0.3,8.8,3.7c0.3,1,1.4,1.7,2.7,2c-0.7-2.4-1-4.4-1.7-6.8c12.9-3.4,25.5-7.1,38.4-10.5c0.7,0.7,1.4,1.7,3.1,4.1
				c-0.3-4.4,0.7-6.8,4.4-7.5c2.7-0.3,5.1-4.1,7.5-0.7c1-1.4,1.4-3.1,2.7-3.7c9.2-5.1,18.4-10.2,27.6-15c4.4-2,7.1-5.8,11.2-8.2
				c4.1-2.7,8.2-6.1,11.9-9.2c2.7-2.4,5.4-4.8,8.2-7.1c1-0.7,2.7-1,4.1-1.7c-1.4-4.1,4.1-4.8,5.8-8.8c2,3.4,3.4,6.5,5.4,9.5
				c-24.5,24.5-52.7,43.2-85.4,55.4c-0.7-0.7-1.4-1.7-2.4-2.7c-0.7,1.7-1,3.4-2,4.4c-0.7,0.7-2.4,0-3.4,0c-1.4,0.7-2.4,2-3.7,2.4
				c-5.4,1.4-10.5,2.7-16,4.1c-5.8,1.4-11.9,2.7-17.7,4.4c-3.7,1-7.8,0.7-11.9,1.7c-4.4,1-8.8,1-13.3,1.4c-4.4,0.3-8.8,0.7-12.9,0.7
				c-9.2-0.3-18.4-0.3-27.2-1.4c-9.5-1-19-2.4-28.2-4.4c-9.9-2.4-19.7-5.8-29.6-8.5c-2.7-0.7-4.8-2-5.4-5.1c-0.7-1.7-2-3.1-3.1-4.4
				c-0.3,0.3-0.7,0.3-1,0.7c0,1.7,0,3.4,0,5.4c-2.7-1.4-5.1-2.4-7.1-3.7C327,593.2,327,589.8,326.6,587.4z M384.8,607.2
				c-2.4,0.7-4.1,1-6.5,1.7c1,1.7,2,3.4,3.4,5.8C383.1,611.6,383.8,609.6,384.8,607.2z"/>
			<path d="M818.5,347.3c-2-1-3.7-2.4-5.1-2.4c-3.1,0.3-1.7,2.7-1.4,4.4c0.3,1.7,1.7,3.1,2.7,4.8c1-1,1.4-1.7,2-2.4
				c2,1.4-4.1,11.2-9.9,15.6c-1.7-1.4-3.1-2.7-5.4-4.8c0,3.4,0,5.4,0,8.5c-5.8,1.7-11.9,3.7-18.7,6.1c0.3-3.4,0.3-6.5,0.7-10.2
				c1.4,1,2.4,1.7,2.7,1.7c2.4-1.4,4.1-2.7,6.1-3.7c3.4-1.7,6.8-3.4,10.9-5.4c0.7,0.3,1.7,1.4,3.1,2c-3.1-7.5,3.4-12.6,3.7-19
				c0-2.7,0.7-5.4,1-8.2c-0.3,0-1,0-1.4-0.3c-0.3,0.7-0.7,1.4-1,2.7c-4.8-15.3-9.2-30.3-13.9-45.2c0.3-0.3,0.7-0.3,1-0.7
				c1,1.7,2.4,3.1,3.7,5.1c1.4-4.4,0.7-6.1-5.4-12.9c-0.3,1-0.7,1.7-1,3.1c-4.4-14.6-8.8-28.6-13.3-42.5c-2.4-7.5-4.8-15-6.8-22.4
				c-0.7-2.4-0.7-5.1-1.4-7.5c-0.7-2-2-3.4-2.7-5.4c-1.4-4.1-2.4-8.2-3.7-11.9c-1.7-4.4-4.1-8.5-6.1-12.6c-1-2-1.7-3.4,1-4.4
				c0.7,1.4,1,2.4,1.4,3.1c2.7-0.7,5.1-1.4,7.8-2c1.4,4.4-1,9.5,3.7,13.3c0-2.4-0.3-4.4-0.3-6.5c0.3,0,0.3,0,0.7-0.3
				c1,3.1,2,6.1,3.1,9.2c1.7,4.8,3.1,9.9,4.4,15c0.3,1.7,2.4,3.4-0.7,4.8c-0.3,0,0,1.7,0.7,2.4c0.3,0.3,1.4,0,2.4,0
				c4.1,13.3,8.5,26.9,12.6,40.5c0.3,1.7-0.7,3.7-0.7,5.4c0,0.7,0.3,1.7,0.7,2.4c0.7-0.3,1.4-1,2.4-1.4c3.1,9.2,5.8,18.7,8.8,28.2
				c2,6.1,3.1,12.6,5.8,18.7c2.7,6.5,4.1,13.3,6.5,20.1C818.8,337.5,819.1,342.9,818.5,347.3z M782.1,226.6c0,3.1,0,6.1,0,9.5
				C785.5,234.1,785.1,230.3,782.1,226.6z M807.9,331c4.8-4.8,4.8-5.8,0.3-8.2C808.3,325.2,807.9,327.6,807.9,331z"/>
			<path d="M284.1,81c0,0-0.3-1-0.7-2c5.4-1.4,9.5-6.5,16-4.8c0.3-0.7,1-1.7,1.7-2.7c1,1,1.7,2,3.1,3.7c-4.1,1.7-7.1,3.1-10.2,4.4
				c-51,22.8-93.2,56.5-126.9,101c-2,2.7-4.1,3.7-7.1,1.4c23.5-32.7,52-59.9,85.7-81.6c10.5-6.8,21.4-12.6,32.3-18.7
				C279.7,81,281.7,81.3,284.1,81z"/>
			<path d="M210.3,623.8c1-1.7,1.7-2.7,2.7-4.4c13.6,12.2,28.2,22.4,43.5,32c0,1.7,0,3.1-0.3,4.4c0.3,0,0.7,0.3,0.7,0.3
				c0.7-1,1.4-1.7,1.7-2.7c7.8,4.1,15.3,8.5,23.5,12.2c9.9,4.8,19.7,9.2,29.9,12.9c11.6,4.1,23.8,7.5,35.7,11.2
				c1.7,0.7,3.4,1.7,5.4,2.4c0.7,0.3,1.4,0.7,2.4,0.7c5.1,0.7,10.2,1,15.3,1.7c3.1,0.3,4.8,1.7,4.1,5.8c-7.5-1.4-15-3.1-22.4-4.4
				c-7.1-1.4-13.9-4.1-21.1-5.8c-7.5-1.7-14.6-4.8-22.1-7.5c-7.1-2.7-14.3-5.8-21.4-8.8c-6.8-3.1-13.6-6.8-20.4-10.2
				c-6.8-3.7-13.6-7.8-20.1-11.9c-6.5-4.1-12.6-8.5-18.7-12.9C222.6,633.7,216.8,628.9,210.3,623.8z"/>
			<path d="M468.5,49.4c-0.3,1.7-0.7,3.1-0.7,4.4c-2.4,0-4.8-0.3-7.1-0.3c-2.4-0.3-4.8,0-4.8-2c-2.4,0.3-4.8,1-6.8,1
				c-21.1-1.4-42.2-1-62.9,1.7c-5.4,0.7-10.5,1.7-16,2.4c-5.8,1-11.2,2-17,3.4c-9.5,2.4-19,5.1-28.2,7.8c-3.1,1-6.1,2-9.5,3.1
				c-0.7-1-1.7-2-2.4-3.4c0-0.3,0.3-0.7,0.3-1c1.7,0.7,3.1,1,4.8,1.7c-0.3-0.7-0.3-1.7-0.7-2.7c4.1-1.4,7.8-4.4,12.9,0.3
				c-0.7-2-1-3.1-1.4-4.1c22.8-7.1,45.9-11.6,69.4-13.6C421.5,45.6,444.7,46.6,468.5,49.4z"/>
			<path d="M467.1,600c-0.3-0.7-0.3-1-0.7-1.7c-0.3-0.7-0.3-1.4-0.7-2.4c35.7-6.8,67.7-21.1,96.6-42.9c1,1.4,1.7,2.4,2.4,3.7
				C548.1,573.8,488.9,600,467.1,600z"/>
			<path d="M651.5,616c-1.7-2-2.7-3.1-4.4-5.1c1.4-1,3.1-1.4,3.7-2.4c11.9-13.3,23.5-26.5,35-40.1c7.5-8.5,12.6-18.4,18.4-27.9
				c2.7-4.4,5.1-9.2,7.8-13.9c1-1.7,1.4-2.7,4.1-3.1c3.7-0.7,2.4-4.4,1-7.8c1,0.3,1.4,0.7,2,1c0.3-1,0.7-2.4,1.4-3.7
				c2,4.4,0,7.5-1.7,10.9c-0.3,0.3-1.4,0.3-1.7,0.7c-0.7,1-1.7,2.4-2,3.7c-0.3,1,0.3,2.4-0.3,3.4c-0.3-0.7-1-1.4-1.4-2
				c-0.3,0-1,0-1.4,0c-0.3,2.7-0.3,5.4-1,7.8c-0.7,1.7-2,3.4-3.4,4.4c-1.4,1-4.8,1-1.7,4.1c0.3,0.3-0.7,1.7-0.7,2.4
				c-3.1-1.7-2.7,1.4-2.7,2.7c0.3,3.1-0.7,4.8-3.1,4.4c-1.7,3.4-3.1,6.5-4.4,9.2c-0.3,0.7-1.7,1-2.7,1.7c-0.7,0.3-1,1-1.4,1.4
				c-1.7,3.1-2.7,6.8-5.1,9.2C673.9,590.2,662.7,602.7,651.5,616z"/>
			<path d="M342,167c-2.4,1-4.8,2.4-7.1,3.4c-27.6,12.2-51.7,29.6-72.4,51.7c-1,1-2,1.7-3.4,1.7c-1,2-2,4.1-3.1,6.1
				c-1.7-1-2.7-1.7-3.7-2.4l0,0c0.3-1,0.7-2,1.4-2.7c7.1-7.5,14.3-14.6,21.8-21.8c0.7-0.7,2.4-1,2.7-1c2.4-2.4,4.1-4.8,6.1-6.5
				c17-13.3,35.4-24.1,55.1-32C340.2,164.7,340.9,165.7,342,167L342,167z"/>
			<path d="M643,623.5c-13.9,9.9-27.6,19.7-41.2,29.9c-1.7,1.4-2.7-0.7-4.4,1c-12.6,11.2-28.6,16.7-43.5,24.1c-0.7-1-1-1.7-1.4-2.4
				c-0.3-0.7-0.3-1.4-0.7-2c5.8-2.7,11.9-5.1,17.3-8.2c8.5-4.4,17.3-9.2,25.8-14.3c9.2-5.1,17.3-11.6,25.8-17.3
				c1.4-1,3.4-1.4,5.4-1.7c0.3,0.3,0.7,0.7,1,1c0.3-1.4,0.3-2.7,0.7-4.8c0.7,0,2-0.3,3.1-0.3c1-5.1,6.1-6.1,9.2-10.2
				C640.6,619.8,641.3,621.1,643,623.5z"/>
			<path d="M101.5,331.3c2.4-0.3,3.4,0.3,3.1,2.7c-1,7.5-2,14.6-2.7,22.1c-0.3,2,0.3,4.1,0.7,7.1c9.2-2.7,18-5.4,27.2-8.5
				c1.4,2.4,3.1,4.8,4.8,7.8c-2,0-3.4,0-5.1,0c-0.3,0.3-1.4,1.7-2.4,2c-8.8,2.7-17.7,5.4-26.2,8.2c-5.1-10.2-2.7-20.7-2-31
				c0.7,0.3,1.4,0.3,2.4,0.7c-0.3-1,0-1.7-0.3-2.4c-1.4-2.7-2.4-5.1,1-7.1C102.2,332.7,101.8,331.7,101.5,331.3
				C101.8,331,101.5,331.3,101.5,331.3z"/>
			<path d="M128.7,237.8c-0.3,1-1,2.4-1,3.1c1,3.7,0,7.1-1.4,10.5c-5.8,15.6-10.9,31.3-16.7,47.6c0,0-0.7-0.3-2-0.3
				c3.7,6.1-0.3,11.6-0.7,17c-0.3,5.4-0.3,11.6-5.8,15.6l0,0c-1.7-0.7-1.7-0.7-1.4-2.7c1.7-8.8,3.4-17.7,5.1-26.9
				c0.3-1.7,1.4-3.4,2.4-5.8c-1.4-4.1,1.4-8.8,2.7-13.9c0.3-1.7,0.7-3.4,1.4-5.1c4.8-12.6,9.5-25.2,14.3-37.4c0.3-0.7,1-1,1.4-1.7
				C128.4,237.5,128.4,237.5,128.7,237.8L128.7,237.8L128.7,237.8z"/>
			<path d="M314.4,591.5c-10.5-6.8-21.1-13.6-31.3-20.1c-2.4-1.7-3.7-3.4-2.7-6.5c0.7-2,0.7-4.4,1-7.1c4.1,2.7,7.5,5.4,11.2,7.8
				c6.1,4.1,12.6,8.2,19,11.9C317.5,581.7,317.8,583.4,314.4,591.5z"/>
			<path d="M440.2,704.4c-0.3-2.4-0.3-3.4-0.7-5.4c27.9-1.4,55.4-6.1,82-14.3c1.4,3.1,1.4,5.1-2.4,5.8c-5.8,1-11.9,2.4-17.7,3.7
				c-7.5,1.7-14.6,4.1-21.8,5.1C466.8,701.4,453.9,702.7,440.2,704.4z"/>
			<path d="M215.8,292.2c-2-2.7-1.7-5.1-0.3-7.8c6.5-13.6,12.9-27.2,22.4-39.5c2-2.4,3.4-5.4,5.1-8.2c1,0.3,1.7,0.7,2.7,1.4
				c-1-5.4,2.4-8.2,6.5-10.5l0,0c0.3,1,0.7,2.4,1,3.7c-1,0-2,0-3.4,0c2.7,2.7,1,4.4-0.3,6.5c-7.1,10.9-13.9,21.8-21.1,32.3
				c-4.1,6.1-5.8,13.6-9.5,20.1C217.8,290.9,216.4,291.5,215.8,292.2L215.8,292.2z"/>
			<path d="M603.8,517c0,6.1-6.8,8.8-9.9,14.3c-1.4-1.7-2-2.7-3.1-4.1c15-16.3,27.2-34.4,37.1-54.1c0.7,0.7,1.4,1,2.4,1.7
				c1.4-2,2.7-4.4,4.4-6.5c-1.4,3.4-1,7.8-4.8,9.2c-1,3.1-1.7,5.4-2.7,8.8c-1-1-2-1.7-3.1-2.4c0,1-0.3,1.7-0.3,2
				c1.4,2.7,0.3,5.1-1.4,7.5c-4.4,6.5-8.8,13.3-13.6,19.7C607.6,514.7,605.5,515.7,603.8,517z"/>
			<path d="M169.8,573.2c0.7,1.4,1.4,2.7,2.4,3.7c11.9,12.9,23.8,25.5,36.1,38.1c2.4,2.4,3.4,4.4,1,7.8
				c-5.8-5.8-11.9-10.9-17.3-16.7c-6.1-6.1-11.6-12.6-17.3-19C170.5,582.7,166.8,578.9,169.8,573.2L169.8,573.2z"/>
			<path d="M128.7,238.1c0.3-0.3,1.4-0.7,1.4-1c-1.7-7.1,4.1-11.2,6.5-16.7c0.7-2,1.7-3.7,2.7-5.4c5.4-8.5,10.5-17.3,16.3-25.5
				c1-1.4,4.1-1.4,5.8-2c-10.5,18-20.7,36.1-31,53.7C129.7,240.5,129.4,239.2,128.7,238.1C128.7,237.8,128.7,238.1,128.7,238.1z"/>
			<path d="M385.5,697.3c17,0.7,34.4,1.7,51.7,2.4c0,1,0,2.4,0.3,4.1c-4.1-0.7-8.2,2-10.9-1.4c-9.5,1.7-18.7,2.7-27.6-2.4
				c0,0,0,0.3,0,1c0,0.3,0,0.7,0.3,1.7c-3.1-0.3-5.4-1.7-8.5-1C387.2,702.7,385.8,700.4,385.5,697.3z"/>
			<path d="M410.7,151.4c1-4.8,5.4-4.8,8.2-4.8c10.9,0,21.8,0.7,33,1c0.7,0,1.4,1.4,2,2.4c-1,0.7-2,2-3.1,2c-5.4,0-10.5-0.7-16-1
				C426.6,151.1,418.8,151.4,410.7,151.4z"/>
			<path d="M349.8,161.9c0.3-1,0.7-2.7,1.4-2.7c10.9-3.4,21.8-6.5,32.7-9.5c1.4,4.1,0.7,5.4-3.1,6.1c-8.2,1.7-16,4.1-23.8,6.5
				C354.2,163,351.8,163.3,349.8,161.9C349.4,161.9,349.8,161.9,349.8,161.9z"/>
			<path d="M505.6,57.2c0.3,0.7,1,1.4,1.4,2.4c0.7,2.4-0.3,2.4-2.4,2c-2.4-0.7-4.8-0.7-6.8-1.7c-2-0.7-3.7-2.4-5.4-3.4
				c-2,3.1-12.6,1-16.3-2.7c-2.4,0.7-4.1,1-6.8,1.7c2-4.4,4.4-5.4,7.8-4.4c5.8,1.7,11.2,3.1,17,4.4
				C497.7,55.8,501.8,56.5,505.6,57.2z"/>
			<path d="M567.1,556.5c-1-2.4-1.4-3.4-2-4.8c7.8-7.1,15.6-14.3,23.8-21.8c0.7,1.4,1.4,2.4,2.7,4.4
				C583.4,541.5,575.6,548.7,567.1,556.5z"/>
			<path d="M549.4,675.2c0.3,1.4,1,2.7,1.4,4.4c-8.8,3.4-17.3,6.5-26.5,9.9c0.3-4.8,2.7-6.5,6.5-7.5
				C536.8,679.6,543,677.2,549.4,675.2z"/>
			<path d="M248.8,82.7c-2.7-3.1-5.1-5.4-7.5-8.5c4.1-2.4,7.8-4.4,11.2-6.8c0.3,0.3,0.7,0.3,1,0.7C252.2,72.5,250.5,77.3,248.8,82.7
				z"/>
			<path d="M407.3,147c0.7,1.7,1,3.1,1.4,4.1c-0.3,0.3-0.3,0.7-0.7,1c-1.4-0.7-2.4-1.4-3.7-2c0-0.3,0.3-0.7,0.3-1
				c-2.4,0.3-5.1,1-7.8,1.4c0.3,1,0.7,1.7,1.4,3.1c-2-0.7-3.7-1-5.4-1.4c-0.3,0.3-1,1.4-2,2.7c-0.7-2-1-3.7-1.4-5.4
				C395.4,148.3,401.1,147.7,407.3,147z"/>
			<path d="M686.8,400.7c-0.7,0.7-1.7,1.7-2.7,2.7c-1-1.4-2.4-2.4-3.4-3.7c7.5-3.4,9.5-2.7,12.2,5.1c-2,0.7-4.1,1-6.5,2
				c0.3-2,1-3.7,1.4-5.4C687.2,401.1,686.8,401.1,686.8,400.7z"/>
			<path d="M320.9,594.2c-1.4-0.7-2.7-1.4-4.1-2c1.4-3.1,2.7-5.4,4.4-8.8c1.4,1,3.4,2.4,3.1,3.1c0,1.7-1.7,3.1-2.4,4.8
				C321.5,592.2,321.2,592.9,320.9,594.2z"/>
			<path d="M342,167c0.3-1.7,0.3-3.7,1.4-5.1c1.7-2.4,4.1-0.3,6.5,0l0,0c0,1,0,2.4-0.3,2.7C347.1,165.3,344.3,166,342,167L342,167z"
				/>
			<path d="M376.6,700.4c0-1.7,0-3.1,0.3-4.4c4.4-1,6.8,0.7,7.1,5.1C381.7,701,379.4,700.7,376.6,700.4z"/>
			<path d="M312.4,67c-0.3,2.4,0.3,4.4-0.7,5.1c-1.7,1.4-3.7,1.7-5.8,2.4c0-0.3-0.3-1-0.3-1.4c1-0.3,1.7-0.7,2.7-1
				c0-0.3,0-0.7,0-0.7c-1.4,0-2.7,0-4.1-0.3c0-0.3,0-0.3-0.3-0.7C306.2,69.4,308.6,68.4,312.4,67z"/>
			<path d="M644.3,620.8c-0.7-0.7-1-1.4-1.4-1.7c1-2,1.7-3.7,2.7-6.1c1,1,2,2.4,3.1,3.4C647.4,618.1,645.7,619.4,644.3,620.8z"/>
			<path class="st1" d="M499.4,319.8c-0.3-1.7-1-3.4-1.4-5.1c0.7-0.3,1-0.7,1.7-1c0.3,1,0.7,2,1,3.1c0.3-0.3,0.7-0.3,1-0.7
				c-1.7-6.1-3.4-11.9-5.4-18.4c9.2-2.7,18-5.4,27.2-8.5c0.7,2.7,1.7,4.8,2.4,7.1c9.2,29.9,18.7,60.2,27.9,90.5c0.7,2.7,0,5.8,0,9.9
				c-1.4-2-2.4-3.1-3.1-4.4c-6.5,2-13.3,3.7-19.7,6.1c-3.1,1-4.8,0.7-7.1-1.4c-14.3-13.3-28.9-26.5-43.5-39.5
				c-1.4-1-2.7-2.4-4.1-3.7c5.8,18.7,11.6,37.1,17.7,56.1c-9.2,2.7-18,5.8-27.6,8.5c-10.5-33.7-20.7-67.3-31.3-101.4
				c9.2-2.7,17.7-5.8,26.5-8.2c1-0.3,2.7,1,3.7,2c14.6,12.9,29.3,26.2,43.5,39.5c1.4,1.4,3.1,2.7,5.1,4.4
				c-4.1-12.2-7.8-23.8-11.6-35.7C501.5,318.7,500.4,319.4,499.4,319.8L499.4,319.8z"/>
			<path class="st1" d="M690.9,353.8c-1-1.4-1.7-2.7-3.1-4.4c-4.1,1-8.5,2.4-11.9,3.4c-10.5-33.7-20.7-67.3-31.3-101.4
				c6.8-2,13.3-4.4,20.1-6.1c9.5-2.4,19-4.8,28.6-5.4c10.9-1,21.1,2.4,29.9,9.5c0.7,0.3,1.4,0.7,2.4,1c0.7,0.3,2,0.7,2.4,1.4
				c1,2,1.7,4.1,3.1,6.1c9.9,16,15.3,33,11.2,52c-2,9.5-7.8,17-15.3,22.8c-8.8,6.8-18.7,10.9-29.3,13.6c-3.4,1-7.5,1.4-5.1,7.5
				C691.6,353.8,691.3,353.8,690.9,353.8z M679,265c6.1,19.4,11.9,38.1,18,57.5c3.4-2.4,8.2-2,8.5-6.5c1.7-1,3.4-1.4,4.1-2
				c1.7-3.7,3.7-7.8,3.7-11.6c0-10.2-3.1-20.1-8.5-28.9C698.4,263.6,690.6,260.9,679,265z"/>
			<path class="st1" d="M654.5,367.7c-3.7,0.3-7.1-0.3-9.2-3.7c-0.3-0.7-1.7-1-2.4-0.7c-4.1,1-8.2,2.4-12.6,3.7
				c3.1,4.8,9.2,7.1,7.5,15c-1.7-2-3.7-3.4-3.7-4.8c0-4.8-4.4-5.8-6.5-8.5c-0.3-0.7-2.4,0-3.7,0.3c-9.9,3.1-19.7,6.1-29.6,9.2
				c-1.4,0.3-2.7,0.7-4.8,1.4c-2.7-8.8-5.4-17.3-8.2-26.2c-2.4-8.2-5.1-16.3-7.5-24.5c-1.7-6.1-3.7-11.9-9.2-16
				c0.3-0.3,0.7-0.3,0.7-0.7c1,0.3,2,1,3.7,1.4c-1.7-5.8-3.4-11.2-5.1-16.7c-0.3-0.7-1-1-1.4-1.7c-0.3-0.3-1.4-1-1.4-1.4
				c2.4-5.8-2.7-10.2-2.4-15.6c18-5.4,36.1-11.6,54.8-17c2.4,7.1,4.4,14.3,6.5,21.1c-4.8,3.1-12.2,1.4-13.9,9.9
				c-1-2.4-1.4-3.1-2-4.4c-3.7,1-7.5,2.4-11.9,3.7c2,6.1,3.7,12.2,5.4,18c8.2-2.4,16-4.8,23.5-6.8c7.5,5.4,3.7,13.9,7.8,20.7
				c-4.4,1.4-8.5,2.7-12.6,4.1c0,2,0,4.1,0,6.1c-0.3,0-0.7,0.3-1,0.3c-0.7-1.7-1-3.4-1.7-5.8c-2.4,0.7-5.4,1.7-9.5,3.1
				c2.7,5.4,5.1,10.5,7.5,15.6c0.3,0.7,2.4,1.4,3.4,1c6.5-1.7,12.6-3.7,19-5.8c0-3.1,0-5.8,0-9.5c1,1,1.7,1.4,2,1.7
				c2.4,6.5,4.4,12.9,6.8,19.4c0.7,1.7,2,3.1,3.7,4.1C650.4,360.2,654.5,362.3,654.5,367.7L654.5,367.7z"/>
			<path class="st1" d="M712,171.5c0.3,4.1,0.7,7.8,1,11.9c0.3,0,0.7,0,1,0c0-1-0.3-2.4,0-3.1s1-1.4,2.4-2.7c0,4.1,0,6.8,0,10.2
				c-1-0.7-2-1.4-2.7-1.7c-1.4,1-2.7,2-4.1,2.4c-10.5,3.4-21.1,6.5-31.6,9.9c-27.9,8.8-55.4,17.3-83.3,26.2c-3.7,1-7.1,2-10.9,3.1
				c-1.7,0.7-3.1,1.7-4.1,2.4c-5.4-0.3-9.5,2.7-14.6,3.4c-0.3-0.7-1-1.7-1.7-2.7c0,0,0-0.3,0.3-0.3c3.4-1,7.5-1.7,10.5-3.4
				c3.7-1.7,7.5-2.4,11.2-3.4c3.4-1,6.5-2.7,9.9-3.4c3.7-0.3,7.5-2,11.2-3.4c3.7-1.4,7.8-2.4,11.6-3.7c3.7-1,7.5-2.4,11.2-3.4
				c21.1-6.5,42.2-12.9,63.3-19.7c1-0.3,2.4-0.7,3.1-1c0.3-2,0.3-3.7,0.7-5.4c0.3,0,0.7-0.3,1-0.3c0.3,4.1,2.4,5.1,5.8,3.4
				c2-0.7,4.8-0.7,7.5-1.4c-0.3-4.4-0.3-9.2-0.7-13.9C710.6,171.5,711.3,171.5,712,171.5z"/>
			<path class="st1" d="M516.8,437.1c3.1,2,3.1,4.1,1.7,6.5c-1.4,2.4-2.7,4.8-4.4,7.8c-4.4,0-28.6,8.2-29.6,10.2
				c-2.4,0.3-4.1,0-5.8,0.7c-17,5.1-34,10.5-51.4,16c-0.3-1-0.7-2-1-3.4c10.9-3.4,21.8-6.8,32.7-10.2c15.6-4.8,31.6-10.2,47.3-14.6
				C513,447.7,516.4,444.2,516.8,437.1z"/>
			<path class="st1" d="M47.1,421.8c3.1,2.4,2.4-0.7,2.7-2c1,1,1.7,1.7,2,1.7c0,2.4,0,4.4,0.3,6.1c6.1,20.7,12.6,41.2,19,61.9
				c0,0.3,0.3,1,0.3,1.7c-4.1-1-4.8-4.1-6.1-7.5c-2.4-7.1-5.1-13.9-7.5-21.1C54.5,449,50.8,435.7,47.1,421.8z"/>
			<path class="st1" d="M85.2,546.3c-3.7-12.2-7.5-24.1-10.9-36.1c-0.7-2,0.3-4.4,0.7-6.8c2.7,3.1,5.1,5.8,7.1,8.2
				c-0.3,0.3-0.3,0.7-0.7,1c-1-0.3-2-0.7-3.1-1c0,0.3,0,0.7,0,1c2,7.1,4.4,14.3,6.5,21.4c0.7,1.7,1.7,3.4,3.1,4.8
				C89.9,541.2,88.6,545.3,85.2,546.3z"/>
			<path class="st1" d="M187.2,371.1c0-1.4,0.3-2.4,0.3-4.1c-3.7,2.4-7.1,4.4-10.2,6.5c6.8-12.2,18-22.8,24.1-21.1
				c0,0.3,0,1.4-0.3,1.4c-2.7,2-5.4,4.1-8.2,6.1c-2.4,1.7-4.8,3.7-3.1,7.5c0.3,1,0.3,2,0.7,3.1C189.9,370.8,188.6,370.8,187.2,371.1
				z"/>
			<path class="st1" d="M547,233.7c-0.3-1-1-3.1-2-6.1c10.2,5.8,22.1,7.1,30.3,15.3c0,0.3-0.3,0.7-0.3,1
				C565.8,240.5,556.9,237.5,547,233.7z"/>
			<path class="st1" d="M290.9,478.9c2.7,0.7,4.8,1.7,4.4,4.8c0,3.1,0.3,6.1-0.3,9.2c-0.3,2.4,0.3,3.4,2.7,4.1
				c1.4,0.3,2.4,1.7,4.4,3.1c-5.4,2-8.5-0.7-11.9-2.4c-0.3,0-0.7-0.7-0.3-1C290.3,490.8,290.6,485.1,290.9,478.9z"/>
			<path class="st1" d="M402.8,332.7c-1.7-11.9-3.4-24.1-5.4-36.1c-0.3,0-0.7,0-0.7,0.3c0.7-1.4,1.7-2.7,2.4-4.1c0.3,0,0.7,0,1,0
				c1.4,13.3,2.7,26.5,4.1,39.8C403.9,332.3,403.5,332.3,402.8,332.7z"/>
			<path class="st1" d="M450.8,274.5c6.1,9.5,12.2,18.7,19,28.9c-5.8-0.3-7.8-3.1-8.8-8.5c-0.3-1.4-1.4-2.7-2.4-4.1
				c0-0.3-0.3-0.3-0.7-0.7c-3.1-4.8-6.1-9.5-9.2-14.6C449.4,275.5,450.1,274.9,450.8,274.5z"/>
			<path class="st1" d="M423.2,460.6c-6.1-5.4-6.8-12.6-6.5-20.1C422.6,446,422.9,453.4,423.2,460.6z"/>
			<path class="st1" d="M325.6,472.8c1.7,2.7,3.7,5.8,6.1,9.2c0,2.7-0.3,6.8-0.7,10.5c-0.3,0-1,0.3-1.4,0.3
				c-2-6.5-3.7-12.9-5.8-19.4C324.6,473.2,325.3,473.2,325.6,472.8z"/>
			<path class="st1" d="M612.7,248.3c-8.8-3.1-18.7-3.4-24.8-12.2c8.5,3.7,17,7.5,25.5,11.2C613,248,613,248,612.7,248.3z"/>
			<path class="st1" d="M90.3,357.5c-0.3,0-0.7-0.3-0.7-0.3c-1.7-5.1-3.4-10.2-4.8-15.3c-0.7-2,0.3-3.4,2.7-3.1c1.4,0.3,3.1,0,4.8,1
				c-2,1-3.7,1.7-5.8,2.7C88.6,347,93.3,351.4,90.3,357.5C89.9,357.5,90.3,357.5,90.3,357.5z"/>
			<path class="st1" d="M778.3,344.9c2,1.4,4.1,2.4,6.8,4.1c1.4-0.7,4.8,3.4,5.1,8.8c-3.4-4.8-10.9-5.4-12.9-11.6
				C777.7,346,778,345.6,778.3,344.9z"/>
			<path class="st1" d="M736.5,349c2.7,2,3.4,4.1,1.4,6.8c-2.4,3.7-4.4,7.5-2.4,12.2c-1.7,0.3-3.1,0.7-5.1,1.4
				C732.8,362.6,734.5,356.2,736.5,349z"/>
			<path class="st1" d="M752.1,247.7c2.7,2,0.3,20.4-4.1,26.5C749.8,264.7,751.1,256.2,752.1,247.7z"/>
			<path class="st1" d="M44,413c4.8-3.1,9.2-6.5,13.9-9.2c1.4-0.7,3.4-0.7,5.1-1c-0.3-0.7-0.7-1.4-1.4-2c-0.3,1.4,0,3.4-1,4.1
				C55.9,408.5,51.1,413.3,44,413L44,413z"/>
			<path class="st1" d="M282.4,398.7c-0.3-5.1-0.7-9.5-0.7-14.3c5.8,2,3.1,7.8,5.8,11.2C285.5,396.6,284.5,397.3,282.4,398.7z"/>
			<path class="st1" d="M201.8,427.9c5.1,0,8.5,4.8,9.2,14.3C207.9,437.4,204.9,432.7,201.8,427.9z"/>
			<path class="st1" d="M275.6,490.8c-1.4,5.1-2.7,10.5-4.1,15.6c1.4,1,2.7,1.7,3.7,2.4c-3.1,0.3-5.1-1-5.1-3.4
				c0-5.4,1.4-10.5,4.4-15C274.9,490.8,275.3,490.8,275.6,490.8z"/>
			<path class="st1" d="M273.9,371.8c0.7,3.4,1.4,6.5,2,10.2c-5.1,0.3-6.1-2.7-6.8-5.8C270.9,374.9,271.9,373.8,273.9,371.8z"/>
			<path class="st1" d="M521.5,416c4.8,6.8,5.4,9.5,3.4,12.9C523.2,424.9,517.5,421.8,521.5,416z"/>
			<path class="st1" d="M719.2,369.1c-3.1-6.5-0.3-11.2,2.7-16.3c0.3,0,0.7,0,1,0.3C721.5,358.2,720.2,363.6,719.2,369.1z"/>
			<path class="st1" d="M485.5,305.1c5.1,2.7,6.8,7.5,8.8,12.2C491.6,317.4,491.6,317.4,485.5,305.1z"/>
			<path class="st1" d="M755.2,329.6c2.7,4.4,1.7,8.5-2.7,11.6C753.2,337.5,754.2,333.4,755.2,329.6z"/>
			<path class="st1" d="M162,378.6c-1.7-4.1-3.7-7.8-5.8-12.6c1.7,0.3,3.1,0.7,3.7,0.7c1.4,4.1,2.7,7.5,3.7,11.2
				C163,378.3,162.4,378.3,162,378.6z"/>
			<path class="st1" d="M650.8,341.2c3.1,4.1,3.4,7.8,1,9.5C648.4,347,648.4,347,650.8,341.2z"/>
			<path class="st1" d="M419.2,343.2c0.7,4.4,1.7,8.5,2.4,12.9c-0.3,0-1,0.3-1.4,0.3c-3.1-3.7-2.7-8.2-2.7-12.9
				C418.1,343.2,418.8,343.2,419.2,343.2z"/>
			<path class="st1" d="M311.3,495.9c-1-2.4-2-4.1-2.4-5.1c1-2,2-3.7,3.1-6.5c1,0.3,2.7,0.3,4.4,0.7
				C310,486.4,313,491.9,311.3,495.9z"/>
			<path class="st1" d="M717.4,236.4c-1.4-1.7-2-2.7-3.1-3.7c-0.3,2-0.3,3.7-0.3,5.4c-0.3,0-0.7,0-1,0c-0.3-3.1-0.7-6.1-1-9.2
				C716.8,228.9,717.1,232,717.4,236.4z"/>
			<path class="st1" d="M640.6,264c-2.4-0.7-2-7.5,1.7-16C641.6,253.4,641.3,258.9,640.6,264z"/>
			<path class="st1" d="M790.6,319.4c1.7,5.1,2,9.9-0.7,14.6c-0.3,0-0.7,0-1.4,0C789.2,328.9,789.9,324.2,790.6,319.4z"/>
			<path class="st1" d="M35.5,421.1c2.4-1.4,4.8-2.7,6.8-4.4c1-0.7,1.4-2.4,1.7-3.7l0,0c2,3.1,0.7,5.1-1.7,6.8
				C40.3,421.5,38.2,423.8,35.5,421.1C35.2,421.1,35.5,421.1,35.5,421.1z"/>
			<path class="st1" d="M102.5,394.9c-2-3.7-8.2-2.4-9.5-7.5c3.1,1,6.1,1.7,8.8,3.1c1,0.3,1.4,2.4,2,3.7
				C103.5,394.3,102.8,394.6,102.5,394.9z"/>
			<path class="st1" d="M633.4,287.1c0.3,2.7,0.3,5.1,0.7,8.5c-1.7-0.7-4.1-1.4-4.4-2.4C629.4,290.5,630,287.8,633.4,287.1z"/>
			<path class="st1" d="M96,459.9c2.4,3.1,4.8,5.8,7.1,9.2C97.1,467.7,93.7,463.3,96,459.9z"/>
			<path class="st1" d="M114.4,232.4c1,1,1.7,2,3.1,3.4c1.4-1.4,3.1-2.7,4.8-4.1c0.3,0,0.7,0.3,1,0.3c-0.7,1.4-0.7,3.1-1.7,3.7
				c-1.7,1-3.7,1.4-5.4,1c-1-0.3-2-2-2.7-3.4C113.4,233,113.7,232.7,114.4,232.4z"/>
			<path class="st1" d="M318.1,343.6c-0.3-1.4-0.7-3.1-1-4.4c3.4,2.4,7.8,3.4,9.2,8.5c-2.7-1.7-5.1-3.1-7.5-4.8
				C318.5,343.2,318.5,343.2,318.1,343.6z"/>
			<path class="st1" d="M115.8,501.4c-1.7,3.7-3.4,7.5-5.4,11.2c-0.7-0.3-1.4-0.7-2-1c2-3.7,3.7-7.1,5.8-10.9
				C114.7,500.7,115.4,501.1,115.8,501.4z"/>
			<path class="st1" d="M743.6,325.2c-3.1-3.4,1.7-6.1,0.7-9.5C749.4,319.4,744.3,322.1,743.6,325.2z"/>
			<path class="st1" d="M129.4,390.5c-2.7-2.7-5.1-5.1-7.8-7.8c0.7-0.3,1-1,1.7-1.4c2.7,2.7,5.1,5.4,7.8,7.8
				C130.4,389.5,129.7,389.8,129.4,390.5z"/>
			<path class="st1" d="M697.4,195.6c1.4,2.7,2.7,5.4,4.1,8.8C697,203.8,695.7,201.4,697.4,195.6z"/>
			<path class="st1" d="M498.7,390.8c2,3.4,4.4,6.8,6.5,10.2c-0.7,0.3-1,0.7-1.7,1c-2-3.4-4.4-6.8-6.5-10.5
				C498.1,391.2,498.4,391.2,498.7,390.8z"/>
			<path class="st1" d="M685.5,219.4c-3.7,1.4-7.1,0-10.2-2.7c3.4,0.7,7.1,1,10.5,1.7C685.5,218.4,685.5,218.7,685.5,219.4z"/>
			<path class="st1" d="M193.7,366.7c1.4,3.1,2,5.1,3.1,7.1c-2,0.3-3.7,0.7-5.8,1C192,372.5,192.6,370.4,193.7,366.7z"/>
			<path class="st1" d="M283.1,371.8c2.4,2.4,3.1,5.1,1.4,8.2c-0.3,0-1,0-1.4,0.3c-0.3-2.7-0.7-5.4-1.4-8.2
				C282.4,371.8,282.8,371.8,283.1,371.8z"/>
			<path class="st1" d="M761.7,288.8c-1.4-3.4-2.7-6.5-4.1-9.9C763.4,281.3,763.7,282.3,761.7,288.8z"/>
			<path class="st1" d="M741.9,275.5c-0.7-1.7-1.7-3.7-2.4-5.4c0-0.3,1-1.4,1.4-2c0.7,0.7,1.7,1,1.7,1.7c0.3,1.7,0,3.4,0,5.1
				C743,275.2,742.6,275.5,741.9,275.5z"/>
			<path class="st1" d="M82.1,496.6c-1.7-2.4-3.1-4.4-4.1-6.5c0,0,1.4-1.4,1.7-1C83.1,489.8,84.1,491.9,82.1,496.6z"/>
			<path class="st1" d="M197.7,461.3c-2.4-2.4-4.4-4.4-6.8-6.8c0.3-0.3,1-1,1.4-1.4c2.4,2,4.8,4.4,6.8,6.5
				C198.8,460.2,198.1,460.9,197.7,461.3z"/>
			<path class="st1" d="M77.3,460.6c-4.4-0.7-6.8-3.4-6.8-8.2C72.9,455.1,75.3,457.9,77.3,460.6z"/>
			<path class="st1" d="M90.6,452.4c4.8-0.3,4.4,3.4,5.4,6.8C91.6,458.9,93,454.1,90.6,452.4z"/>
			<path class="st1" d="M452.5,412.6c-1.4-2.4-2.7-4.8-3.7-6.8c0.3-0.3,1-0.7,1.4-0.7c3.1,1.4,3.4,4.1,3.7,7.1
				C453.5,411.9,452.8,412.3,452.5,412.6z"/>
			<path class="st1" d="M728.3,183.4c0.3,3.4,0.3,6.5,0.7,9.9c-0.7,0-1,0-1.7,0c0-3.4,0-6.5,0-9.9
				C727.7,183.4,728,183.4,728.3,183.4z"/>
			<path class="st1" d="M111.7,399c-3.4-3.4-5.4,0-7.5,1.7c-0.3-0.3-0.7-0.7-1-1c1.7-1.7,3.1-3.7,5.1-4.4c0.7-0.3,2.7,1.4,4.1,2.4
				C112,397.7,111.7,398.3,111.7,399z"/>
			<path class="st1" d="M265.8,64.3c1-0.3,2-0.7,3.4-1.4c-0.3,3.1,1.7,5.8-2,7.8C266.8,68.8,266.1,67,265.8,64.3z"/>
			<path class="st1" d="M134.1,545.9c-4.4,0-6.1-2-5.1-7.8C130.7,540.8,132.4,543.2,134.1,545.9z"/>
			<path class="st1" d="M97.1,522.8c5.4,0.7,6.8,2.7,5.1,6.5C100.8,527.2,99.1,525.5,97.1,522.8z"/>
			<path class="st1" d="M740.2,339.2c0.7,3.1,1.4,6.1,2,10.2C738.9,346,738.5,342.9,740.2,339.2z"/>
			<path class="st1" d="M476.6,299c3.4,0.7,3.1,3.7,3.1,6.5c-0.3,0.3-0.7,0.3-1,0.7c-1.4-2-2.4-4.1-3.7-5.8
				C475.6,299.7,476.3,299.4,476.6,299z"/>
			<path class="st1" d="M101.5,251.4c-3.1-3.1-3.1-5.4,0-9.2C101.5,245.3,101.5,248,101.5,251.4z"/>
			<path class="st1" d="M299.8,327.9c1.4,2,2.4,3.7,3.7,5.8c-0.7,0.3-1,0.7-1.7,1c-3.1-0.7-2.7-3.7-3.1-6.1
				C298.8,328.6,299.4,328.3,299.8,327.9z"/>
			<path class="st1" d="M189.9,429.3c1,2.7,2,4.8,2.7,6.8c-0.3,0.3-0.7,0.7-1,0.7c-1.4-1.4-2.7-2.4-3.7-3.7
				C187.9,432.3,189.2,431,189.9,429.3z"/>
			<path class="st1" d="M646,301.4c1.7,1.7,3.4,3.4,5.1,5.1c-0.3,0.3-0.7,0.7-1,1c-2.4-1-4.8-2.4-5.1-5.1
				C645,302.1,645.7,301.7,646,301.4z"/>
			<path class="st1" d="M162,537.1c-4.4-1.4-4.1-3.7-3.4-6.1c0.3,0,1-0.3,1.4-0.3C160.7,532.3,161.3,534.4,162,537.1z"/>
			<path class="st1" d="M499.4,319.8c-1.7,1.7-3.4,3.7-5.4,5.4c-0.3-0.3-0.7-1-1.4-1.4C494.3,321.5,495.7,319.4,499.4,319.8
				L499.4,319.8z"/>
			<path class="st1" d="M401.1,493.2c-0.3-2-0.7-3.7-0.7-5.8c1,0.3,2.7,0.3,2.7,1c0.3,1.7,0,3.4,0,4.8
				C402.5,493.2,401.8,493.2,401.1,493.2z"/>
			<path class="st1" d="M654.5,367.7c3.1,0.3,4.8,1.7,4.4,5.4C655.5,372.5,654.2,371.1,654.5,367.7L654.5,367.7z"/>
			<path class="st1" d="M311.7,378.3c0,2.7,0,5.4,0,8.2c-0.7,0-1,0-1.7,0c0-2.7,0.3-5.4,0.3-8.2C311,378.3,311.3,378.3,311.7,378.3z
				"/>
			<path class="st1" d="M720.5,216c2.7,1.4,2.4,4.1,2.7,6.8c-0.3,0.3-1,0.3-1.4,0.7c-1-2.4-1.7-4.4-2.7-6.8
				C719.8,216.4,720.2,216.4,720.5,216z"/>
			<path class="st1" d="M754.9,280c-1-3.1-2-4.8-2.7-6.8c0.3-0.3,0.3-0.3,0.7-0.7c1.4,1.4,2.7,2.7,3.4,4.1
				C756.6,277.2,755.5,278.6,754.9,280z"/>
			<path class="st1" d="M100.1,434.7c-4.4-2-2-5.1-3.1-7.1c0.7,0,1-0.3,1.7-0.3C99.1,429.3,99.4,431.3,100.1,434.7z"/>
			<path class="st1" d="M743.3,241.9c-3.4-4.1-3.4-4.1-0.7-6.8c0.7,2.4,1.4,4.4,2,6.5C744,241.9,743.6,241.9,743.3,241.9z"/>
			<path class="st1" d="M585.1,681.3c-3.1,4.8-5.8,5.4-11.9,2.4C577.7,682.7,580.7,682,585.1,681.3z"/>
			<path class="st1" d="M657.6,641.5c-2,0.3-3.7,0.7-6.1,1.4c-0.3-2-0.3-4.1-0.7-6.1c0.3-0.3,0.7-0.3,1-0.7
				C653.5,637.8,655.5,639.8,657.6,641.5L657.6,641.5z"/>
			<path class="st1" d="M752.5,474.2c2.7-0.7,6.8,2.4,8.2,6.5C756.2,480.6,755.2,476.2,752.5,474.2z"/>
			<path class="st1" d="M660,624.9c4.8,2,4.8,5.4,5.1,8.8C663,633,663,633,660,624.9z"/>
			<path class="st1" d="M604.5,666c5.1,0.7,3.1,4.4,3.4,7.8C603.5,671.8,604.9,668.4,604.5,666C604.9,665.7,604.5,666,604.5,666z"/>
			<path class="st1" d="M223.9,648.3c-5.1,1-6.8-1.4-7.8-4.4c0.3-0.3,0.7-0.7,1-1.4C218.8,644.2,220.9,645.9,223.9,648.3z"/>
			<path class="st1" d="M557.9,695.9c-1.7,1-2.7,2-4.1,2.7c-0.3,0-0.7-0.3-0.7-0.3c0.7-2.4,1.4-4.8,2-6.8c0.3,0,0.7,0,1,0
				C556.6,692.9,557.3,694.2,557.9,695.9z"/>
			<path class="st1" d="M754.5,469.4c-1.7-1-3.7-2-5.8-3.4C752.8,463.6,752.8,463.6,754.5,469.4z"/>
			<path class="st1" d="M164.7,345.6c-1.4,4.8-5.8,5.1-8.8,7.5C154.9,350,159,347,164.7,345.6z"/>
			<path class="st1" d="M384.8,607.2c-1,2.7-2,4.4-3.1,7.5c-1.4-2.4-2.4-4.1-3.4-5.8C380.7,608.2,382.4,607.5,384.8,607.2z"/>
			<path class="st1" d="M782.1,226.6c3.1,4.1,3.1,7.5,0,9.5C782.1,232.4,782.1,229.6,782.1,226.6z"/>
			<path class="st1" d="M807.9,331c0-3.4,0.3-5.8,0.3-8.2C812.7,324.9,812.7,325.9,807.9,331z"/>
			<path class="st1" d="M637.5,533.7c-1-2-2.4-4.1-3.4-6.1c0.3-0.3,1-0.7,1.4-1c1.4,2,2.7,4.1,4.1,6.1
				C638.9,533,638.2,533.4,637.5,533.7z"/>
			<path d="M679,265c11.6-4.1,19.4-1.4,25.5,8.5c5.4,8.8,8.5,18.7,8.5,28.9c0,4.1-2,7.8-3.7,11.6c-0.3,1-2.4,1.4-4.1,2
				c-0.3,4.1-4.8,4.1-8.5,6.5C690.9,303.1,684.8,284.4,679,265z M701.1,271.8c-0.3,0-1,0-1.4,0.3c0.3,3.4,0.3,6.8,0.7,9.9
				c0.7,0,1.4,0,2-0.3C701.8,278.3,701.5,274.9,701.1,271.8z"/>
			<path class="st1" d="M701.1,271.8c0.3,3.4,0.7,6.8,1,9.9c-0.7,0-1.4,0-2,0.3c-0.3-3.4-0.3-6.8-0.7-9.9
				C700.1,271.8,700.4,271.8,701.1,271.8z"/>
		</g>
	</g>
	<g id="Layer_2_00000093862309119466777470000001221756592567356290_">
		<g>
			<circle class="st2" cx="424.9" cy="367" r="232.6"/>
			<path class="st1" d="M218.1,230c-3.4,5.8-7.5,7.8-12.2,5.4c-1-0.3-2-1-3.1-1.4c-1-0.3-1.7-1-2.7-1.4l-1.4-1c-1.7-1-3.4-1.7-5.1-2
				c-0.7,0-1.7,0-2.4,0.3s-1.4,0.7-2,1c-1,0.7-2,1.7-3.1,3.1c-0.3,0.7-1,1.7-2,3.4l0.3,0.3c0.3,0.7,2.4,2,5.4,3.7
				c1,0.7,2,1.4,3.4,1.7c1,0.7,2.4,1.4,3.4,1.7l1.7-2c0.7-1,1.4-2,2-2.7c1-2,2.4-2.7,4.1-2.4c0.7,0,1.4,0.3,1.7,0.3
				c2.4,1.4,2.4,4.4,0,8.8c-2,3.4-3.4,5.8-4.4,7.5c-0.3,0.3-0.3,1-0.7,1.4c-0.3,1-0.7,2-1.4,3.1c-0.3,0.3-0.7,1-1.7,1.7l-0.7,1
				c-1,1.7-2,2.4-3.4,2c-1.4,0.7-2.4,0.7-3.7,0c-1.4-0.7-1.7-2-1.7-3.7c0-0.7,0-1.7,0.3-2c0.3-0.7,0.7-1.4,1-1.7
				c0.7-1,1-1.7,1.4-2.4c-0.3,0-1-0.3-1.4-0.7c-0.7-0.3-1.4-1-2.4-1.7c-0.7-0.3-1-1-1.7-1.4c-2.7-1.7-7.1-4.1-13.3-7.8
				c-2-1.4-3.7-2.4-5.8-3.4l-7.1-3.7c-0.7-0.3-1-0.7-1.7-1l0,0c-0.3,0.7-0.7,1-1.4,1.4l-0.7,0.7c-0.3,0.3-0.7,0.7-1,1v0.3
				c0,0.7,0,1.4-0.3,2c-0.3,0.3-0.7,0.7-0.7,1c-1,1-2.4,1.4-3.4,0.7c-0.7-0.3-1.4-1-1.4-1.4c0,0-0.3-0.3-0.3-0.7c0-0.3,0-0.7,0-0.7
				c-0.3-1.7-0.3-3.1,0.3-4.4c0.7-1,0.7-1.4,1-1.4v0.3c0.3-0.7,0.3-1.7,0.7-2.7c0-1,0.3-2,1-3.1c0.7-1,1.7-2.4,3.1-3.7
				c1-1,2-2,2.7-3.1c0.3-1,1-2,1.7-2.7c1-1.7,1.7-3.1,2.4-4.8c0.3-0.3,0.7-1,1-1.4c1-1,1.7-2,2.4-2.7c1-1.7,2-2.7,2.4-3.4l1-0.7
				c2-1.7,4.1-2,6.1-1.7c1.7,0.3,3.4,0.7,5.1,0.7c2,0,3.4,0.3,4.1,0.3c0.3,0,0.7,0.7,1.4,1.4c1.7,1.7,3.4,3.4,4.4,5.1
				c1.7,2.7,2.4,5.8,1.7,9.5v1.7h0.3c2.7-1,5.8-1,8.5,0c1,0.3,1.7,0.7,2.7,1.4c1,0.7,1.7,1,2.7,1.7l2,1.4l0.3-0.7
				c0.3-0.7,0.7-1.4,0.7-2c0-0.7,0.3-1.4,0.7-2c0.7-1,1.7-2,3.7-2.4c1.7-0.7,3.4-0.3,4.8,0.3c1.7,1,2,2.7,1.7,4.8
				C219.8,226.2,219.2,228.3,218.1,230z M182.4,226.2c0.7-1.4,1-2.7,1.4-4.1c0-0.3-0.3-1,0-1.7c0-1.7-0.7-3.4-2.4-5.1
				c-0.3-0.3-0.7-0.3-1-0.7c0,0-0.3-0.3-1-0.3c-0.3,0-1-0.3-1.4-0.7l-0.3-0.3c-0.7-0.3-1.4-0.7-2.4-0.7s-2,0-2.7,0.3
				c-1,0.3-1.4,0.7-1.7,1c-2.7,3.7-5.1,7.8-7.5,11.6l-0.7,1.4c1,0.7,2,1.4,2.7,1.7l6.8,3.7c0.7,0.3,1,0.3,1.7,0.7
				c0.7,0.3,1.4,0.3,1.7,0.7c0.7,0.3,1.4,0.7,1.4,0.7l0,0l0,0c0.3-0.3,0.7-1,1-1.7c1.7-3.1,2.7-4.8,3.1-5.1
				C181.8,227.2,182.1,226.9,182.4,226.2z"/>
			<path class="st1" d="M271.2,171.5l-0.7,0.7c-1.4,0.3-2.4,1-3.4,1.7c-0.7,0.7-1.7,1.7-2.7,3.1c-0.7,1-1.7,1.7-2.4,2.4
				c-0.7,0.7-1.4,1-2.4,1.7c-1.4,1-2.7,2-4.1,3.4c-3.7,3.1-6.1,4.8-6.8,5.1c-1.4,0.3-2.4,0.3-2.7-0.3c-1.4-1.4-1.7-2.7-1.4-4.1
				c0.7-1.7,1.7-3.1,3.1-4.4c0.3-0.3,0.3-0.3,0.3-0.3c-0.3-0.3-0.3-0.3-0.7-0.7c-1-0.7-1.7-1.4-2.4-2c-0.7-0.7-1-1.4-1.4-2.4
				c-0.3-0.7-1-1.7-1.4-2.4l-1.4-1.7c-1.4-1.4-2-3.1-2.7-4.4l-0.3-0.3c-0.7-0.7-1.4-1.7-2.4-2c-1-1-1.7-2-2.4-3.4
				c-0.7-1-1.4-1.7-1.4-2c-0.7-1-1.7-2-2.7-2.7c-0.7-0.7-1.4-1.4-2.4-2c-0.3-0.3-0.7-0.7-1-1s-0.3-0.7-0.7-1c-0.3-0.3-0.7-1-0.7-1.4
				c-1-1.4-2-1.4-3.1-0.7c-0.3,0.3-0.7,0.7-1,1c-0.3,0.7-0.7,1-1.4,1.4c-1.7,1.4-3.4,1.7-5.4,1c-1-1.4-1-3.1,0-4.1
				c1-1,1.7-2,2.7-3.4c6.5-6.1,12.9-11.9,19-17.3l4.4-3.7c0.3-0.3,0.7-1,1-1.4c0.3-0.3,0.3-0.7,0.7-0.7c1-0.7,2.4-1.4,4.1-1.4
				c1,0,2,0.3,2.7,0.7c0.7,0.7,1.4,1.4,2,1.7c1.4,1,2.7,2,4.1,3.7c1.7,1.7,3.4,3.1,5.1,5.1c1,1.4,1.4,2.4,1.4,3.4
				c-0.3,1-1,2-2.4,3.4c-2.4,2-4.4,2-6.5,0l-2.4-2c-2.4-1.7-3.4-2.7-4.1-3.4c-0.3-0.3-0.7-0.7-0.7-1c-0.3-0.3-0.3-0.7-0.7-1
				c0,0-4.1,3.1-11.6,9.2l-1,0.7l-2,1c0,0.3-0.3,0.3-0.3,0.3c0,0.3,1,1.7,3.4,4.8c1.7,2,2.7,3.7,3.1,4.4c0.7,0,1.4,0.3,2,1
				c0.3,0.7,0.7,1,1,1.4c0.3,0,0.7-0.3,1.4-0.7c0.7-0.7,1.4-1.4,2-2.4l1-1.4c0-0.3-0.3-1.4-1-3.4c-0.3-0.7-0.7-1.7-1.4-2.7
				c-1-1.4-1.4-2.4-1.4-3.4l0.3-1l1.4-1.4l1.7,0.3c1.4,0.7,2.4,1,3.1,1c0.3,0,1,0.3,1.4,0.7l7.1,8.5c1,0.3,1.7,1,2.4,1.7
				s1.4,1.7,2,3.4c0.3,1,1,1.7,1.7,2.7c0.3,0.7,0.3,1.4,0.3,2c0,1-0.7,1.7-1.4,2.4c-1,0.7-2,1-3.1,1c-1.4,0-2.7-0.7-3.7-1.7
				l-4.4-3.7c-1.7,0.7-2.7,1.4-3.1,1.7c-0.7,0.7-0.7,1.4-0.3,2.4c1,2.7,2.7,5.4,4.4,7.5c0.7,0.7,1.4,1.7,2.4,2.4
				c0.3,0.3,0.3,0.7,0.7,0.7c0,0.3,0.3,0.3,0.3,0.7c0.7,1,2,1,3.4,0c0.3-0.3,0.7-0.3,0.7-0.7c0.3-0.3,0.7-0.7,0.7-1
				c0.7-1,1.7-2,2.7-2.7c1-1,2.7-2,5.1-3.7c0.3-0.3,1-1,1-1.7c0.3-0.7,0.3-1.4,0-1.7c-0.7-1.7-1.7-3.4-2.7-5.1
				c-2-3.7-3.1-6.1-3.4-7.1c-0.3-1.7,0-2.7,1-3.4c2-0.7,3.7-1,5.1-0.3c1.4,0.3,2.4,1.4,3.1,2c0.7,1,1.7,2,2.4,3.4
				c1.7,2.7,3.7,5.4,5.4,8.2c2,3.1,1.4,5.8-1.4,7.8l-1.4,1c-0.3,0.3-1.7,1.4-3.4,3.4l0,0C271.5,171.1,271.2,171.1,271.2,171.5z"/>
			<path class="st1" d="M323.6,139.2c-2.7,1-4.8,0.7-6.8-0.3c-0.7-0.7-1-1-1.4-1.7c-0.3-1-0.3-2,0.3-3.4l0.3-0.7c0.3-1.4,1-2,2-2.4
				c0.7-0.3,1.4-0.3,2.4,0c0.3,0,0.7,0,1,0c1-0.3,1.4-0.7,1.4-1c0-0.7,0-1,0-1.7c0-1,0-1.7-0.3-3.1c-0.3-1.4-0.7-2.4-0.7-3.4
				c0-1-0.3-2-0.3-2.7l-0.3-0.7l-2-5.8c-1.4-3.7-2-6.1-2.4-7.5c0-0.7-0.3-1.4-0.3-1.7c-0.3-0.7-0.7-1.7-1-2.4
				c-0.3-0.7-0.7-1.7-1-2.4c-0.7-2-1.4-4.1-1.7-5.8v-0.3c-0.3-0.7-0.7-1-1-0.7l-0.7,0.3c-1.7,1-3.4,1.7-5.1,2.4
				c-0.7,0.3-1.4,0.3-2,0.3c-1.4,0-2.4-0.7-2.7-1.7c-0.3-0.7,0-2,0.3-3.4c0.7-1,1-1.7,0.7-2.4c0-1,0.3-2,1.4-2.7s1.7-1.4,2.7-1.7
				c1-0.3,2-0.3,3.1,0c2,1,3.1,1.4,3.4,1.4c0.7,0,1-0.3,1.7-0.3c0.7-0.3,1.7-0.7,3.4-1.7c0.3,0,0.3-0.3,0.7-0.3c0.7-0.3,1.4-0.7,2-1
				c1-0.3,1.7-0.3,2.4-0.3c0.3,0,0.7,0,1,0c0.7-0.3,1-0.3,1.4-0.3s0.7-0.3,1-0.3c0.7-0.3,1-0.3,1.7-0.7s1.4-0.7,2-0.7
				c0.3,0,0.7,0,1,0c0.3,0,0.7,0,1,0c0.3,0,1,0,1.4,0.3c0.7,0,0.7,0.3,1,0.3c4.1,1.4,6.8,3.4,8.2,5.4c1,1.7,1.7,2.7,1.7,3.7
				c0.7,1.7,1,3.1,1,5.1c0,2-0.7,4.1-1.4,6.1c-0.3,0.7-0.3,1-0.3,1l0,0c4.8,0.3,8.5,2.4,10.5,6.1c0.3,0.3,1,1.4,2.4,2.7
				c0.3,0.3,0.3,0.7,0.7,1c0,0.3,0,1.4,0,3.7c0,1.4,0,3.1,0,4.4c0,3.1-0.7,5.4-2,7.1c-1.7,1.7-3.4,3.4-5.4,4.4
				c-0.3,0-0.3,0.3-0.7,0.7c-1,0.7-2,1.4-2.7,1.7c-1.4,0.3-2,0.7-2,0.7s-0.7,0.7-2.4,1c-2,0.3-3.7,0.7-5.8,1.4l-3.1,1
				c-1.4,0.7-3.4,1.7-6.5,3.4C324.9,138.8,324.3,138.8,323.6,139.2z M323.9,103.1c0.3,0,2-1,4.8-2.4c1.7-0.7,3.1-1.7,4.8-2.4
				c1.4-0.7,2.7-2,3.4-4.1s1-3.7,0.3-5.1c-0.7-1-1.7-2.4-3.1-3.4c-1.4-1-2.7-1.4-3.7-1.4c-3.4,1-6.8,2-10.2,3.4l-1,0.3
				c-0.3,0.3-0.3,0.7-0.3,1.4l2,5.1c0,0,1,2.4,2.7,6.8l0.3,1C323.6,102.8,323.9,103.1,323.9,103.1z M336.8,125.2c1-0.3,2-1,3.1-1.7
				c1.4-0.7,2.7-1.7,4.1-2c1-0.3,2-1,2.4-2c0.7-0.7,1-1.7,1.4-3.1c0.7-0.7,0.7-1.4,0.7-2c0-0.3-0.3-0.3-0.3-0.7
				c-0.3-0.3-0.7-1.4-1.4-2.7c-0.3-1-1-1.7-1.4-2.4c-0.7-0.7-1-1.4-2-2c-1.7-1-3.7-1.4-5.4-0.7c-2,0.3-5.8,1.4-11.2,3.1h-0.3
				c0,0,0,0,0.3,0c0,1,0.3,2.4,1,3.7c0.3,0.7,0.7,1.4,1,2c0.3,1,1,2,1.4,3.1c0.3,1.4,1,2.7,1.4,4.1l1.4,3.7l0.7-0.3
				C334.5,125.9,335.5,125.6,336.8,125.2z"/>
			<path class="st1" d="M433.8,118.4h-1c-1.4-0.7-2.4-1-3.4-1s-2.4,0.3-4.1,0.7c-1,0.3-2.4,0.3-3.4,0.3s-1.7,0-2.7,0
				c-1.7,0-3.4-0.3-5.4-0.3c-5.1,0-7.8-0.3-8.5-0.7c-1.4-0.7-2-1.4-2-2c0-2,0.3-3.1,1.4-4.1c1.7-0.7,3.4-1.4,5.1-1.4
				c0.3,0,0.3,0,0.3,0c0-0.3,0-0.7,0-0.7c-0.3-1-0.3-2-0.3-3.1s0-1.7,0.3-2.7s0.3-1.7,0.3-2.7v-2c0-2,0.3-3.7,0.7-5.1v-0.7
				c0-1,0-2-0.3-3.1c0-1.4,0-2.7,0.3-4.1c0.3-1.4,0.3-2,0.3-2.7c0-1.4,0-2.7-0.3-3.7c-0.3-1-0.3-2-0.3-3.1c0-0.7,0-1,0-1.7
				c0-0.3,0-0.7,0-1c0-0.7,0-1,0-1.4c0-1.7-0.7-2.4-2-2.4c-0.3,0-1,0-1.4,0.3c-0.7,0.3-1.4,0.3-2,0.3c-2,0-3.7-1-5.1-2.7
				c0.3-1.7,1-3.1,2.7-3.4c1.4-0.3,2.7-0.3,4.1-0.7c8.8-0.7,17.3-1,25.5-1h5.8c0.3,0,1-0.3,1.7-0.7c0.3,0,0.7,0,1,0
				c1.4,0,2.7,0.7,4.1,1.7c0.7,0.7,1.4,1.4,1.7,2c0,1,0.3,1.7,0.3,2.7c0.3,1.4,0.7,3.4,0.7,5.4c0.3,2.4,0.7,4.8,0.7,7.1
				c0,1.7-0.3,2.7-1.4,3.4c-0.7,0.7-2,1-4.1,1c-3.1,0-4.4-1.4-5.1-4.1l-0.7-3.1c-0.7-2.7-1-4.4-1-5.1c0-0.3,0-1,0-1.4s0-0.7,0-1
				c0,0-5.1-0.3-14.6-0.3h-1.4h-1.4c-0.3,0-0.3,0-0.7,0s-0.3,2-0.7,5.8c0,2.7-0.3,4.4-0.7,5.4c0.7,0.3,1,1,1,2.4
				c0,0.7,0,1.4-0.3,1.7c0.3,0,0.7,0.3,1.4,0.3c1,0,2-0.3,3.4-0.7l1.7-0.3c0.3,0,0.7-1,1.4-3.4c0.3-0.7,0.3-1.7,0.7-2.7
				c0-1.7,0.3-2.7,1-3.4l1-0.7h1.7l1,1.4c0.7,1.4,1.4,2.4,1.7,2.7c0.3,0.3,0.7,0.7,0.7,1.4v11.2c0.3,1,0.7,2,0.7,2.7
				c0,1-0.3,2-0.7,3.7c-0.3,1-0.3,2-0.7,3.1c0,0.7-0.3,1.4-1,1.7c-0.7,0.7-1.7,1-2.7,1c-1.4,0-2.4-0.3-3.1-1.4c-1-1-1.7-2-1.7-3.7
				v-6.1c-1.7-0.3-2.7-0.7-3.4-0.7s-1.4,0.3-1.7,1.4c-1,2.7-1.4,5.8-1.4,8.5c0,1,0,2,0,3.4c0,0.3,0,0.7,0,1c0,0.3,0,0.7,0,0.7
				c0,1.4,1,2,2.7,2.4c0.3,0,0.7,0,1,0c0.3,0,0.7,0,1.4,0c1.4-0.3,2.4-0.3,3.7-0.3c1.4,0,3.4,0,6.1,0.3c0.7,0,1.4,0,2-0.3
				c0.7-0.3,1-0.7,1.4-1.4c0.3-1.7,1-3.7,1.4-5.4c0.7-4.4,1.7-6.8,2-7.5c0.7-1.4,1.7-2,3.1-2c2,0.7,3.4,1.7,4.1,3.1
				c0.7,1,1,2.4,1,3.7c0,1,0,2.4-0.3,4.1c-0.3,3.4-0.7,6.5-1,9.9c-0.3,3.4-2.4,5.1-6.1,5.1h-2c-0.7,0-2,0-4.8,0.3l0,0
				C434.5,118.4,434.1,118.4,433.8,118.4z"/>
			<path class="st1" d="M500.4,130.7c-3.1-1-6.1-2.7-9.5-4.8c-0.7-0.7-1.4-1.7-1.4-2.7c0-1,0-2,0.3-3.1c1.4-3.1,3.7-3.7,7.8-2
				c1,0.3,1.4,0.7,2,1.4l0.3,0.3c0,0,0.7,0,1.4-0.7c0.7-0.3,1.4-0.3,1.7-0.7c0.3-0.3,0.7-0.7,1-1c1-1.7,1.7-3.4,2.4-4.8
				c0.3-1.4,0.7-2.7,1-3.7c0-0.7,0.3-1.4,0.7-2c0.3-0.7,0.3-1,0.7-1.7c0.3-0.3,0.3-1,0.7-1.4c0-0.3,0.3-0.7,0.3-1
				c0.3-2,1-3.7,1.7-5.4s1.4-3.4,2-4.8c0.7-1,1-2,1.4-3.4c0.3-0.7,0.3-1.4,0.7-2c0-0.7,0-1.4-0.3-2c-0.3-0.7-0.3-1.4-0.7-2l-0.3-0.3
				c0,0-0.3,0-0.7,0c-0.3,0-1,0-1.4-0.3c-0.7-0.3-1.4-0.7-1.7-1c-0.3-0.3-1.7-1.4-3.7-2.7c0,0,0,0-0.3-0.3c-0.3-1-0.3-1.7,0-2.4
				c0.7-2,2.7-2.7,5.8-2c1.4,0.3,9.2,3.1,23.5,8.5c0.7,0.3,1.7,1,2.4,2.4c0.7,0.3,1,0.7,0.7,1c0.3,0.3,0.3,0.7,0,1.4
				c-0.3,0.7-0.7,1-1.4,1.4c-1.7,1-4.8,0.7-9.2-0.7c-1-0.3-2-0.3-2.7,0c-0.7,0.3-1.4,1.4-1.7,2.7c-0.7,2-1.4,4.1-2,5.8
				c-2,6.1-4.4,14.6-7.5,25.8c0,0.7,0,1,0.3,1.4c0.3,0.3,1.7,1,3.7,1.7c3.1,1,4.8,1.7,5.4,1.7c0.3,0,1,0.3,1.7,0.3
				c1.7,0.7,3.1,0,4.1-1.7c0.3-1,0.7-2,1-3.1c1.4-3.7,2.7-6.5,4.1-7.8c0.7-1,2-1.7,3.4-2c1,0,2.4,0,3.1,0.3c0.3,0,0.7,0.3,1,0.7
				s0.7,0.7,0.7,1.4s0,1,0,1.7c0,0.3-0.3,0.7-0.3,1c-2.4,6.1-4.8,12.2-7.5,17.7c-0.7,1.4-2,2.4-3.7,2.7s-3.4,0.3-5.1-0.3
				c-1-0.3-1.7-0.7-2.7-1c-7.8-2.7-13.6-4.4-17-5.1C504.5,132,502.5,131.3,500.4,130.7z"/>
		</g>
		<g>
			<circle class="st2" cx="425.3" cy="378.9" r="235"/>
			<path class="st1" d="M296,660.9c-4.1-2-7.8-4.4-11.6-6.5c-1.7-1-3.1-2-4.1-3.1c-0.3-0.7-0.7-1.4-1-2c-0.3-0.7,0-1.4,0.3-2
				c0.3-0.7,1-1,2-1.4c1.4-0.3,3.4-0.3,5.4,0.3c0.7,0.3,1.4,0.3,1.4,0l0.3-0.7c0.7-2,1-3.1,0.7-4.1s-1-1.4-2-2
				c-0.3-0.3-0.7-0.3-1.4-0.7l-2-1c-1.4-0.7-2.4-1.4-3.4-2c-0.3-0.3-1-0.7-1.4-0.7c-0.7-0.3-2,1.4-4.4,4.8c1.7,1,3.1,2.4,4.1,4.1
				c0.3,1.4,0.3,2.4-0.3,3.7c-1,2-3.7,1.7-8.2-0.3c-1-0.7-2-1-2.7-1.7c-1-1-2.4-1.7-3.7-2.4l-4.8-2.4c-2.4-1.4-3.1-3.1-2-4.8
				c1-2,2.7-2.7,5.1-2c0.3,0,1,0.3,1.4,0.3l0.7,0.3c0.3,0.3,0.7,0.7,1,0.7c1,0.3,2,0,3.4-1.7c1.7-1.7,3.4-3.1,5.1-4.8
				c3.1-2.7,4.8-4.4,5.8-5.8l1.7-2c1-0.7,1.7-1.4,2.7-1.7c0,0,1.4-1.7,4.1-5.1c1.7-2.4,3.4-4.4,5.1-5.8c1-1,1.7-1.7,2-2.4l0.3-0.7
				c0.3-1,1.4-1.7,2.4-2.4c1.7-1,3.7-2.4,6.8-3.7c1-0.3,2-0.3,3.1,0c1.7,1,2,3.1,1.4,6.8c-0.3,0.7-0.3,1.4-0.7,2
				c0,0.3-0.3,0.7-0.7,1s-0.3,0.7-0.3,0.7c-0.7,1.4-1.4,3.1-1.7,5.1c-0.7,2.7-1.4,5.1-1.7,7.5c-1,4.4-2.7,10.9-5.1,19.7
				c-0.7,2.7-1,4.4-1.7,5.8c-0.7,2-0.7,3.4,0.7,4.1c0.7,0.3,1.4,0.7,2,0.7s1.7,0.3,2,0.7c1,0.3,1.4,1.4,1.7,2.4
				c0.3,1.7,0.3,2.7-0.3,3.7c-0.3,0.7-1,1-1.7,1.7c-0.7,0.3-1.7,0.7-2.4,0.7C297.7,661.3,296.7,661.3,296,660.9z M283.4,628.6
				l8.8,4.8V633c0.3-1.4,1-3.1,1.4-4.4c1.4-4.1,2.7-9.2,3.7-15C296,615,291.3,620.1,283.4,628.6z"/>
			<path class="st1" d="M334.5,676.6c-4.4-1-6.1-3.4-5.1-6.8c0.7-3.1,2.7-4.1,6.1-3.4c0.7,0,1,0,1.4,0c0,0,0,0,0.3-0.3l0.3-0.3
				c0.7-2.7,1.7-7.5,3.1-13.9c0-0.7,0.3-1.4,0.7-1.7s0.3-1,0.3-1.4c0.3-1.7,0.3-3.7-0.3-6.1c-0.3-1,0-2,0-3.1c0.3-1.4,1-3.1,2-4.1
				c0.7-0.7,1-1.4,1.4-2.4s0-1.7-0.7-2c-1-1-1.7-2-2-3.1c0-1,0-2,0-3.1c0-0.3,0-1,0-1.4c0.3-0.7,0.7-1.4,1.7-2c1-0.3,4.8,0,11.2,1.7
				c1.7,0.3,2.7,1,3.1,2c0.7,1,1,2,1.4,3.1c0,0.7,0.3,1,0.7,1.4c0.7,1.7,1,3.7,1.4,5.4c0.3,1.7,0.7,3.7,1.7,5.4
				c0.7,1.4,0.7,2.4,0.7,4.1c0,2,1,5.4,3.1,10.5c0-0.3,0.3-0.7,0.3-1.4s0.3-1.4,0.3-1.7c0.3-1.4,0.7-2.4,1.4-3.7
				c0.7-1.4,1.4-2.7,1.7-4.1s0.7-3.1,1.4-4.8c0.3-1.4,0-2.7-0.3-4.8v0.3c-0.3,2-1.7,2.7-3.7,2c-1.7-0.3-2.4-1-2.7-2.4
				c0-0.7-0.3-1,0-1.4c0.3-1.4,1-2.7,1.7-3.7c1.4-2,3.1-3.1,5.4-2.7c4.8,1,9.5,2,14.3,3.4h0.3c1,0.3,1.7,0.7,1.7,1.4s0,1.4,0,1.7
				l-0.3,1.7v0.3l-0.3,0.7c-1,0.7-1.7,0.7-2.4,0.7s-1,0-1-0.3c-0.3,0-0.7-0.3-1-0.3s-0.3,0-0.7-0.3s0,0,0,0c-0.7,0.3-1,1-1.4,1.4
				c-0.3,0.7-0.3,1-0.3,1.4c0,0.3-0.3,1-0.3,1.4c0,0.7,0,1-0.3,1.7c-0.7,2.4-1,5.1-1.7,7.8c-0.3,1.7-0.7,3.1-1,4.1
				c-0.3,1-0.3,2.4-0.7,3.4s-0.3,2.4-0.7,3.4c-0.3,0.7-0.3,1.4-0.7,2.4c-0.3,0.7-0.3,1.4-0.7,2c-0.3,1.7-0.7,4.1-1.4,6.5
				c-0.3,1-0.3,1.7-0.3,1.7c0,0.3,0,0.3,0,0.7c0,0.3-0.3,0.7-0.3,1v0.3l1.4,0.3c1.7,0.3,3.1,1,4.1,2c0.7,0.7,1,1.4,1.4,2
				c0,0.7,0,1.4,0,1.7c-0.3,2-1.7,3.1-3.7,3.1h-1.4c-2.4,0-4.4-0.3-6.5-1c-2.4-0.7-4.4-1.7-6.5-3.7c-2.7-2.7-3.4-5.4-2.7-8.5
				c0-0.3,0.3-1,0.3-1.4c0-0.3,0-1.4-0.3-2.7c0-0.3-0.3-1-0.3-1.4c0-0.3-0.3-0.7-0.3-1c-0.7-1-0.7-1.7-0.7-2.7
				c0-1.4-0.3-2.4-0.7-3.7c-0.3-0.7-0.7-2-1-3.4c-0.7-2.7-1.4-5.1-1.7-7.1c-0.3-2-0.3-3.7-0.3-5.8v-2c0,0,0,1,0,2.7
				c0,2.4,0,4.4-0.3,5.8c-0.3,1-0.7,2.4-1.4,3.4c-0.3,0.3-0.3,1-0.7,1.4l-0.3,2c0,0.3-0.3,0.7-0.3,1c-0.3,1.4-0.7,2.4-1.4,3.4
				c-0.3,0.3-0.3,1-0.7,1.4c0,0.7-0.3,1.7,0,2.7c0,1,0,1.7,0,2.7c-0.3,1.7,0.7,3.1,2.7,3.7c1,0.3,1.7,1.4,2,2.4
				c0.3,0.7,0.3,1,0.3,1.7c0,0.7-0.7,1.4-1.4,2.4c-0.7,0.7-1.4,1-2.4,1.4C343.3,677.6,338.5,677.2,334.5,676.6z"/>
			<path class="st1" d="M426.3,689.8c-3.1,0-5.8-0.7-7.8-2c0,0.3-1,0.3-3.4,0.3c-3.7,0-5.4-1.7-5.4-4.8c0-2.4,1-3.7,3.7-4.1
				c0.7,0,1.4,0,1.7,0s0.7,0,0.7,0h0.3c2-0.3,3.1-0.7,3.4-1c0.3,0,0.7-0.3,0.7-0.3v-1c0-1.7,0-4.1-0.3-7.1c0-0.7,0-2.7,0-6.5
				c0-7.1,0-12.2,0-15.3c0-2.4,0-5.1,0-7.5c0-1,0-1.4-0.3-1.4c0,0-0.7-0.3-1.4,0c-2.4,0-4.1,0-5.4,0c-1.4,0-2.4-0.7-3.1-1.7
				c-0.3-0.3-0.3-0.7-0.3-1s0-0.7,0.3-1.4c0.7-1.7,1.7-2.4,3.1-3.1c0.7-0.3,1.7-0.3,2.4-0.3h2c4.8-0.7,8.5-1,11.9-1.4
				c1.7,0,3.7,0,5.4,0c2.4,0,4.4,0.7,6.1,1.7c1.4,0.7,3.7,2,6.5,4.1c1.7,1,3.1,3.1,4.8,5.4c0.3,0.7,0.7,1,1.4,1.7
				c0.3,0.7,0.7,1.4,1,2.4l0.7,3.1c1.4,2,1.7,4.8,2,7.5c0,1.4,0,2.7-0.3,4.4c0,0.3,0,0.7,0.3,1c0,0.3,0,0.7,0.3,1.4v1
				c-1.4,6.8-2.7,10.9-3.4,11.6s-1,1.4-1,2.4s-0.3,2-0.7,2.7c-2,3.1-4.4,5.1-7.1,6.5c-2.4,1-5.1,2-7.5,2.4c-2.4,0.3-5.1,0.7-7.5,0.7
				L426.3,689.8z M434.8,677.9c0.3,0,0.7,0,1.4-0.3c1.4-0.3,2.7-1,4.1-1.7s2-1.4,2.7-1.7c0.7-0.3,0.7-0.7,0.7-0.7l0,0
				c0.3-0.3,0.7-2,1.7-4.8c1-2.7,1.4-5.4,1.4-8.2c0-0.7,0-1.7,0-2.4s0-1.4,0-2c0-4.1-1.4-7.8-3.7-11.2c-0.3-0.7-0.7-1-0.7-1.4
				c-1-1-2-1.7-3.1-2.7c-0.7-0.7-1.7-1.4-3.1-1c-0.7,0-1.7,0-2.7,0.3s-2,0.3-3.1,0.3H430c-1,1-1.4,2-1.7,3.1
				c-0.3,1.7-0.7,3.4-0.7,5.8c0,1.4,0.3,3.1,0.3,4.4c0,1.4,0.3,2,0.3,2.4c0,0.3,0.3,1,0.3,1.4c0,0,0,0.3,0,1s-0.3,1-0.7,1.4
				c0.7,2,0.7,3.7,1,5.4c0,1,0,2-0.3,3.1c0,0,0,0.3,0,0.7l0,0c0,0,0,0.3,0.3,0.3c0.3,0.7,0.7,1.7,0.7,2.7c0,1.4,0,2-0.3,3.1v0.3
				c0,0,0.3,0.3,0.7,0.3C431.4,677.2,433.1,677.6,434.8,677.9z"/>
			<path class="st1" d="M596.4,637.1c-1.7,1-4.8,2.7-8.8,4.8c-1.4,0.7-3.1,1.7-4.4,2.4c-1.4,1-2.4,1.7-3.1,2.4c-0.3,0.3-1,1-1.7,1.4
				c-4.1,2.4-6.8,2.4-9.2,0.3c-0.7-0.7-0.7-1-1-1c-0.7-1-0.3-2,0.3-3.4c0.7-1,1-1.4,1.4-1.7c0.7-0.7,1.7-1.4,3.1-2.4
				c1.4-0.7,2.4-1.4,2.7-1.4l0.7-0.3c0.3-0.3,0.7-0.3,1-0.7c0.3-0.3,0.7-0.3,0.7-0.7c0,0,0,0-0.3-0.3c0-0.3-0.3-0.3-0.3-0.7
				c-0.3-0.7-1-1.4-1.4-2c-0.7-1-1-1.7-1.4-2.7c-0.3-1-0.7-1.7-1-2.4c-3.1-4.4-4.8-7.1-5.1-7.1c-0.3-0.3-0.7-0.7-1-1.4
				c-0.3-0.7-0.7-1.4-0.7-2c0-0.3,0-1-0.3-1.7c-0.3-0.3-0.7-0.7-1-1.4c-0.3-0.3-1-1-1.4-1.7c-0.3-0.3-0.7-1.4-1-2.7
				c-0.7-1.7-1.4-3.7-2.4-5.1c-1-1.4-2-2.7-3.4-3.7c-0.3,0-2.7,1.7-7.1,4.4l1,2c3.7,7.1,6.1,12.2,7.5,15.6c0.3,0.7,0,1.7-0.3,2.4
				s-1,1.4-1.7,1.7c-0.7,0.7-2,0.7-3.1,0.3c-1-0.3-1.7-0.7-2.4-1.4c-1-2-2-3.7-2.7-5.8c-2.4-5.4-3.7-8.8-3.7-10.2l0,0
				c-0.7-1.4-1-2.4-1.4-3.1l-0.3-0.7c-1.4-2.4-1-4.1,1-5.4s4.1-2.4,5.8-3.4c2.7-1.7,8.2-5.1,17-10.9c1.4-0.7,2.4-1.4,3.7-2
				c1-0.3,2-1,3.1-1.7c2.4-1.4,4.1-1,5.1,1c0.3,0.7,0.7,1.4,1,2.7c0,0.7,0.3,1,0.7,1.7c0.7,1,1.7,2.4,2.4,3.4c2,3.1,3.7,5.4,5.1,7.5
				c1,1.4,2,2.7,3.1,3.4c0.3,0.3,0.7,0.7,1,1c1,1.7,0.7,3.4-1,5.1c-0.3,0.3-0.7,0.7-1,0.7c-1,0.7-2,0.7-3.1,0.7
				c-2,0-4.4-2.4-6.8-6.1c-0.3-0.7-0.7-1.4-1.4-2.4c-0.3-0.3-1-1-2-2c-0.7-0.7-1.4-1.4-2-2.4c-0.7-1-1-2.4-0.7-3.7
				c0-0.7,0-1-0.3-1.4l-7.8,4.8c-0.3,0-0.3,0.3-0.3,0.3l2,3.1c3.4,5.4,5.1,8.5,5.8,8.5c0.7,0.3,1,0.7,1.4,1.4c0,0.3,0.3,0.7,0.3,1.7
				c0,0.7,0.3,1.4,0.7,2c0.3,0.7,0.7,1,1.4,1.7c1,1.4,2,2.7,2.7,3.7c3.1,5.4,5.1,8.8,5.8,10.2c0.7,0,1,0,1.7,0s1.4-0.3,2.4-0.7
				c0.7-0.3,1.4-1,2-1.7c1-1,2-1.7,2.7-2c1.7-1,3.4-1.4,4.8-0.7c0.7,0.3,1.4,0.7,2,1.7C602.8,631,601.5,634,596.4,637.1z"/>
			<path class="st1" d="M664.7,576.6c-7.1,7.1-10.9,11.2-11.6,11.9c-2.4,1.7-4.1,1.7-5.8,0c-1.7-1.7-1.7-4.1-0.3-6.1
				c0.3-0.3,0.3-0.7,0.7-1c0.3-0.3,0.7-0.7,1.4-1.4c-1-0.7-1.7-1.4-1.7-1.4c-1-1-2-2.4-2.7-4.1c-0.3-0.3-0.7-1-1-1.4
				c-0.3-0.3-0.3-0.3-0.7-0.7c-0.3-0.3-0.7-0.7-1-1c-0.7-0.7-1.4-1.7-2-2.4c-0.3-0.7-0.7-1.4-1.4-1.7l-0.3-0.3c0,0-1.4,1.4-4.1,3.7
				c-5.1,5.1-8.2,7.8-8.5,8.2c0,0,0,0.3-0.3,0.3l0.3,0.3c1.4,1,2.4,2.4,3.4,3.4c0.7,1,1.7,2,2.7,2.7c1,1,2,1.7,3.1,2.4
				c0.7,0.3,1,1,1.7,1.4l0.3,0.3c0.3,0.3,0.7,0.7,1,0.7h0.3c1.4-1.4,2.7-2.4,3.7-3.4c0.7-0.7,2-1,3.4-0.7c1,0.3,1.4,0.7,1.7,1
				s0.3,0.7,0.3,1c0.7,2,0.3,3.7-0.7,4.8c-0.3,0.7-1,1-1.4,1.7c-1.7,1.7-3.4,3.7-5.4,5.4c-1,1-2.4,2.4-3.4,3.4
				c-1.7,1.7-3.1,2.7-4.1,3.1c-1,0.3-2,0-3.4-1c-1-1-1.4-2-1-3.1c0.3-1.4,1-3.4,2.7-5.4c0.7-0.7,0.7-1,0.7-1s-0.3-0.3-0.7-1
				s-1-1.4-2-2.4c-0.7-0.7-1-1-1.7-1.4c-1-0.7-1.7-1.4-2.4-2c-0.7-0.7-1-1-1.7-1.7c-6.8-7.1-12.6-12.9-17.3-17.7c-1-1-2-1.7-2.7-2
				c-1,0.7-1.7,1.4-2.4,2c-2,2-3.7,2.4-5.4,1c-0.3-0.3-1-1.4-2-3.1l2-2c0.7-0.3,1.4-0.7,1.7-0.7c0.3-0.3,1-1,1.7-2.4
				c0.3-0.3,0.7-1,1-1.4c1-1,2.4-2,3.4-2.7c0.3-0.3,0.7-0.3,0.7-0.7c0,0,0.3-0.3,0.3-0.7c0.3-0.7,0.3-1,1-1.4
				c0.3-0.3,0.7-0.3,0.7-0.7c0.3,0,0.7-0.3,1-0.7l2.7-1c1.4-0.3,2.4-0.3,3.1,0.3c0.3,0.3,0.7,0.7,0.7,1.4c0.7,1.7,0.3,3.1-1,4.4
				c-0.7,0.7-1.4,1-2,1.7c-0.7,0.3-1,0.7-1,0.7c-0.3,0.3,1,1.7,3.7,4.4c1,1,2,1.7,3.4,2.7c1,0.7,2,1.7,3.1,2.7s1.4,1.4,1.7,1.4
				c0,0,0.3-0.3,0.7-0.7c0.3-0.3,0.7-0.7,0.7-0.7s2-2.4,6.1-7.1c0.7-0.7,1.4-1.4,1.7-1.7s1.4-1,2-2c0.7-0.7,0.7-1.4-0.3-2.4
				c-6.5-6.1-9.5-9.2-9.9-9.5l0,0c-0.7,0.7-1,1.4-2,2c-0.7,0.7-1.4,1.4-2,1.7c-0.7,0.3-1.4,0.7-2.4,0.7c-1.4,0-2.4-0.3-3.1-1
				c-1.4-1.4-1-2.7,0.3-4.4c0,0,0-0.3,0.3-0.3c0-0.3,0.3-0.7,0.3-1c1-1.4,2.4-2.4,3.4-3.7c1-1.4,2-2.4,3.4-3.7
				c3.7-3.7,6.5-5.8,8.5-5.8c1,0,2,0.3,2.7,1c1,1,1,2.7-0.7,5.4c-0.3,0.7-0.7,1-1,1.4c-0.3,0.3-0.7,0.7-1,1l-0.3,0.3
				c-0.7,0.7-0.7,1.4,0.3,2c0.3,0.3,1.4,1,2,1.7c1,1,2,1.7,3.1,2.7c1.4,1.4,2.4,2.4,3.7,3.7c1,1.4,2.4,2.7,3.7,3.7l13.9,12.9
				c1.4,1.4,2.4,1.7,2.7,1c0.3-0.3,0.7-0.7,1-1.4c0.7-1,1-1.7,1.7-2.4c1.4-1.4,3.1-1.7,4.8-0.7c0.3,0,0.3,0.3,0.7,0.7
				c0.7,0.3,1,1,1.4,2c0.3,1.4,0.3,2.7-0.3,4.1C665.8,575.5,665.4,576.2,664.7,576.6z"/>
			<path class="st1" d="M702.5,517.4l-0.3,0.7c-1,1-2,1.7-2.4,2.7c-0.7,1-1,2-1.4,3.7c-0.3,1-0.7,2-1.4,3.1c-0.3,0.7-1,1.7-1.4,2.4
				c-1,1.4-1.7,3.1-2.7,4.8c-2.4,4.4-4.1,6.8-4.4,7.1c-1,1-2,1-2.7,0.7c-1.7-1-2.7-2-2.7-3.1c0-1.7,0.3-3.7,1-5.4
				c0-0.3,0.3-0.3,0.3-0.3c-0.3,0-0.3-0.3-0.7-0.3c-1-0.3-2-0.7-3.1-1c-0.7-0.3-1.4-1-2.4-1.7c-0.7-0.7-1.4-1-2.4-1.7l-2-1
				c-1.7-1-3.1-2-4.1-3.1l-0.7-0.3c-1-0.7-2-1-3.1-1c-1.4-0.7-2.4-1.4-3.4-2c-1-0.7-1.7-1.4-2.4-1.4c-1-0.7-2.4-1-3.7-1.4
				c-1-0.3-1.7-0.7-3.1-1c-0.7,0-1-0.3-1.4-0.7c-0.3,0-0.7-0.3-1-0.7c-0.3-0.3-0.7-0.7-1.4-1c-1.4-0.7-2.4-0.7-3.1,0.7
				c-0.3,0.3-0.3,0.7-0.3,1.4s-0.3,1.4-0.7,2c-1,1.7-2.7,3.1-4.8,3.1c-1.7-1-2-2.4-1.7-4.1c0.3-1.4,1-2.7,1.4-4.1
				c3.7-8.2,7.5-16,11.6-23.1l2.7-5.1c0.3-0.3,0.3-1,0.3-1.7c0-0.3,0.3-0.7,0.3-1c0.7-1,1.7-2,3.4-2.7c1-0.3,2-0.7,2.7-0.3
				c1,0.3,1.7,0.7,2.7,1c1.4,0.3,3.4,1,5.4,2c2.4,0.7,4.4,1.7,6.5,2.7c1.4,0.7,2.4,1.7,2.4,2.7s-0.3,2.4-1,4.1
				c-1.4,2.7-3.4,3.4-6.1,2.4l-3.1-1c-2.7-0.7-4.4-1.4-4.8-1.7c-0.3-0.3-0.7-0.3-1-0.7c-0.3-0.3-0.7-0.7-1-0.7c0,0-2.7,4.4-7.5,12.6
				l-0.7,1l-0.7,1.4c0,0.3-0.3,0.3-0.3,0.7c0,0.3,1.7,1.4,4.8,3.4c2.4,1.4,3.7,2.4,4.4,3.1c0.7-0.3,1.4-0.3,2.4,0.3
				c0.7,0.3,1,0.7,1.4,1c0.3,0,0.3-0.7,0.7-1c0.3-1,0.7-2,1-3.1l0.3-1.7c0-0.3-0.7-1-2-2.7c-0.3-0.7-1.4-1.4-2.4-2
				c-1.4-1-2-1.7-2.4-2.7V500l0.7-1.7l1.7-0.3c1.7,0,2.7,0,3.1,0c0.3,0,1,0,1.4,0l9.9,5.4c1,0,2,0.3,2.7,1c0.7,0.3,1.7,1.4,3.1,2.4
				c0.7,0.7,1.7,1.4,2.4,2c0.7,0.3,1,1,1,2c0.3,1,0,2-0.3,2.7c-0.7,1-1.4,1.7-2.7,2.4c-1.4,0.3-2.7,0.3-4.1-0.3l-5.4-2.7
				c-1.4,1.4-2,2-2,2.7c-0.3,0.7-0.3,1.4,0.3,2.4c2,2,4.4,4.1,7.1,5.4c1,0.3,2,1,3.1,1.4c0.3,0.3,0.7,0.3,1,0.7
				c0.3,0,0.3,0.3,0.7,0.3c1,0.7,2,0,3.4-1.4c0.3-0.3,0.3-0.7,0.7-0.7c0-0.3,0.3-0.7,0.3-1c0.3-1.4,0.7-2.4,1.4-3.7
				c0.7-1.4,1.7-3.1,3.4-5.4c0.3-0.7,0.3-1.4,0.3-2c0-0.7-0.3-1.4-0.7-1.7c-1.4-1.4-2.7-2.4-4.4-3.7c-3.4-2.7-5.4-4.8-5.8-5.4
				c-0.7-1.4-1-2.7-0.3-3.4c1.7-1.4,3.1-2.4,4.4-2.4c1.4,0,2.7,0.3,3.7,1c1,0.7,2,1.4,3.7,2.4c2.7,2,5.4,3.7,8.2,5.8
				c2.7,2,3.4,4.8,1.7,7.8l-1,1.7c-0.3,0.7-1,2-1.7,4.4l0,0C702.8,516.7,702.5,517,702.5,517.4z"/>
		</g>
	</g>
	<g id="Layer_3">
		<circle class="st3" cx="423.2" cy="375.9" r="239.1"/>
		<circle class="st4" cx="423.2" cy="374.9" r="226.2"/>
		<circle class="st4" cx="426.3" cy="374.9" r="327.9"/>
		<circle class="st5" cx="426.3" cy="373.8" r="344.5"/>
	</g>
	<g id="Layer_4">
		<g>
			<path class="st6" d="M810,364.7l-703,221.1c-8.2,2.4-16.7-2-19.4-10.2L34.8,408.9c-2.4-8.2,2-16.7,10.2-19.4l703.4-221.4
				c8.2-2.4,16.7,2,19.4,10.2l52.4,167C822.5,353.4,818.1,361.9,810,364.7z"/>
			<path d="M803.5,355.8L108.3,574.5c-4.8,1.7-10.2-1-11.6-6.1l-50-158.8c-1.7-4.8,1-10.2,6.1-11.6l694.9-218.7
				c4.8-1.7,10.2,1,11.6,6.1l50,158.8C811,349,808.3,354.1,803.5,355.8z"/>
		</g>
	</g>
	<g id="Text">
		<g>
			<path class="st1" d="M111,404.8l33.3-10.5c10.5-3.4,18.7-5.1,24.8-5.1c5.8,0,11.2,2,16.3,5.8c4.8,4.1,9.2,11.6,12.6,22.4
				c2.4,7.5,2.7,13.3,1.4,16.7c-1.4,3.4-5.4,7.5-11.9,11.2c8.2-0.7,14.3,0.7,18.4,3.7c4.1,3.1,7.5,8.8,9.9,17.3l3.7,11.9
				c2.7,8.8,3.7,15.3,3.1,20.4c-0.7,4.8-3.1,8.5-6.8,11.6c-3.7,3.1-12.6,6.5-25.8,10.5L151.1,533L111,404.8z M151.5,416l8.8,28.6
				c1.4-0.3,2.4-1,3.4-1c3.4-1,5.1-2.4,5.4-4.4s-0.7-6.8-3.1-14.3c-1.4-4.1-2.4-6.8-3.7-8.2s-2.4-2-3.7-2
				C157.3,414.7,154.9,415,151.5,416z M166.8,464.7l11.2,36.1c4.8-1.7,7.5-3.4,8.2-5.1c1-1.7,0.3-5.1-1-10.5l-3.7-11.9
				c-1.7-5.4-3.4-8.5-4.8-9.5C174.9,463,171.9,463.3,166.8,464.7z"/>
			<path class="st1" d="M279,351.7l59.5,122.4l-34,10.9l-9.2-22.4l-11.9,3.7l5.1,23.8l-34.7,10.9l-23.5-134L279,351.7z M287.2,440.2
				c-6.1-13.9-13.6-31.6-22.1-52.4c4.4,25.8,7.8,44.2,10.5,56.1L287.2,440.2z"/>
			<path class="st1" d="M398.8,314.3l40.5,128.6l-29.3,9.2L374.3,399l18.4,58.5l-27.9,8.8l-40.5-128.6l27.9-8.8l37.1,52l-18.4-57.8
				L398.8,314.3z"/>
			<path class="st1" d="M507.3,280l40.5,128.6l-29.3,9.2l-35.7-53.1l18.4,58.5l-27.9,8.8l-40.5-128.6l27.9-8.8l37.1,52l-18.4-57.8
				L507.3,280z"/>
			<path class="st1" d="M540.9,269.4l55.8-17.7l8.2,25.8l-22.4,7.1l7.8,24.5l20.7-6.5l7.8,24.5l-20.7,6.5l8.8,28.2l24.5-7.8
				l8.2,25.8l-57.8,18.4L540.9,269.4z"/>
			<path class="st1" d="M628.7,241.9l25.2-7.8c16-5.1,27.2-7.8,33.3-8.2c6.1-0.3,11.2,0.7,15.3,3.1c4.1,2.4,7.1,5.8,9.2,9.5
				c2,4.1,5.1,11.9,8.8,24.1l14.3,44.9c3.7,11.6,5.4,19.4,5.8,23.8c0,4.1-0.7,7.8-2.7,10.9c-2,3.1-4.8,5.8-8.5,7.8
				c-3.7,2-9.5,4.4-17.7,6.8l-42.2,13.3L628.7,241.9z M669.2,253.1l26.5,84.7c4.8-1.4,7.5-3.4,7.8-5.8c0.3-2.4-0.7-7.8-3.4-16.3
				l-15.6-50c-1.7-5.8-3.1-9.5-4.1-10.9c-1-1.4-2-2.4-3.7-2.7C675.6,251.7,672.9,252.1,669.2,253.1z"/>
		</g>
	</g>
</g>
<g>
</g>
<g>
</g>
<g>
</g>
<g>
</g>
<g>
</g>
<g>
</g>
</svg>
